<svg xmlns="http://www.w3.org/2000/svg" xmlns:xlink="http://www.w3.org/1999/xlink" viewBox="0 0 553.02 858.71"><defs><style>.cls-1,.cls-10,.cls-12,.cls-13,.cls-15,.cls-16,.cls-19,.cls-5,.cls-7,.cls-8{fill:none;}.cls-2{fill:#d1d3d4;}.cls-3{fill:#4db969;}.cls-4{fill:#fff;}.cls-16,.cls-19,.cls-5{stroke:#2e3192;}.cls-10,.cls-12,.cls-13,.cls-16,.cls-19,.cls-5,.cls-7,.cls-8{stroke-miterlimit:10;}.cls-5{stroke-width:0.5px;}.cls-14,.cls-6{fill:#231f20;}.cls-10,.cls-11,.cls-13,.cls-15,.cls-7,.cls-8{stroke:#231f20;}.cls-7{stroke-width:0.72px;}.cls-8{stroke-width:0.62px;}.cls-9{fill:#e9f7fe;}.cls-10{stroke-width:0.56px;}.cls-11{fill:#e6e7e8;}.cls-11,.cls-12,.cls-13,.cls-15{stroke-width:0.8px;}.cls-12{stroke:#44c8f5;}.cls-14,.cls-16{fill-rule:evenodd;}.cls-17{clip-path:url(#clip-path);}.cls-18{fill:#ebebeb;}.cls-19{stroke-width:1.06px;}</style><clipPath id="clip-path" transform="translate(-88.32 -50.29)"><rect class="cls-1" x="209.72" y="798.23" width="49.52" height="45.29"/></clipPath></defs><title>ACME-DieCutSticker-MarkOnly.ai</title><g id="Artwork"><path class="cls-2" d="M332.84,145.68v0a6.52,6.52,0,0,0,0,7.76L332,154a7.47,7.47,0,0,1,0-8.87Z" transform="translate(-88.32 -50.29)"/><path class="cls-2" d="M333.8,145.4h4.68v1.14h-3.42v1.74h3.24v1.13h-3.24v1.92h3.6v1.14H333.8Z" transform="translate(-88.32 -50.29)"/><path class="cls-2" d="M341.64,148.78l-2.36-3.38h1.59l1.67,2.62,1.65-2.62h1.52l-2.31,3.38,2.56,3.69h-1.6l-1.86-3-1.86,3h-1.52Z" transform="translate(-88.32 -50.29)"/><path class="cls-2" d="M349.05,145.4h1.09l3,7.07h-1.44l-.66-1.62H348l-.64,1.62H346Zm1.6,4.37-1.09-2.87-1.11,2.87Z" transform="translate(-88.32 -50.29)"/><path class="cls-2" d="M354,145.4h1.92l1.88,4.95,1.91-4.95h1.9v7.07h-1.2V146.6h0l-2.15,5.87h-.87l-2.15-5.87h0v5.87H354Z" transform="translate(-88.32 -50.29)"/><path class="cls-2" d="M363.24,145.4h2.38c1.37,0,2.6.48,2.6,2,0,1.77-1.32,2.09-2.82,2.09h-.9v2.93h-1.26Zm2,3.07c.72,0,1.65-.05,1.65-1s-.83-1-1.51-1h-.9v2Z" transform="translate(-88.32 -50.29)"/><path class="cls-2" d="M369.35,145.4h1.26v5.93h3v1.14h-4.26Z" transform="translate(-88.32 -50.29)"/><path class="cls-2" d="M374.54,145.4h4.68v1.14H375.8v1.74H379v1.13H375.8v1.92h3.6v1.14h-4.86Z" transform="translate(-88.32 -50.29)"/><path class="cls-2" d="M380,153.51v0a6.51,6.51,0,0,0,0-7.75l.84-.56a7.47,7.47,0,0,1,0,8.87Z" transform="translate(-88.32 -50.29)"/><path class="cls-3" d="M334.16,366.51a26.05,26.05,0,0,1-22.49-13l-16.92-29.31a26.06,26.06,0,0,1,0-26l25.84-44.75a26,26,0,0,1,22.49-13h33.84a26,26,0,0,1,22.49,13l25.84,44.75a26.06,26.06,0,0,1,0,26l-16.92,29.31a26,26,0,0,1-22.49,13Z" transform="translate(-88.32 -50.29)"/><path class="cls-4" d="M344.4,317.92h0a2.83,2.83,0,0,0,2.45-1.41l2.45-4.24h0l1.95-3.38.1-.17h0l6.2-10.75a2.83,2.83,0,0,1,4.9,0l4.17,7.22a2.82,2.82,0,0,0,2.45,1.42h0a2.83,2.83,0,0,0,2.45-4.24l-9.07-15.71a2.83,2.83,0,0,0-4.9,0l-15.6,27A2.83,2.83,0,0,0,344.4,317.92Z" transform="translate(-88.32 -50.29)"/><path class="cls-4" d="M390.74,323.58H334.6a2.83,2.83,0,0,1-2.45-4.24l25.4-44a2.83,2.83,0,0,1,4.9,0L381.32,308a2.83,2.83,0,0,1-2.45,4.24h-21.4a2.82,2.82,0,0,0-2.45,1.41h0a2.83,2.83,0,0,0,2.45,4.24h31.21a2.83,2.83,0,0,0,2.45-4.24l-26.44-45.8a2.83,2.83,0,0,0-2.45-1.42h-4.46a2.83,2.83,0,0,0-2.45,1.42l-30.73,53.23a2.81,2.81,0,0,0,0,2.83l2.23,3.86a2.81,2.81,0,0,0,2.44,1.41h61.48a2.81,2.81,0,0,0,2.44-1.41h0A2.82,2.82,0,0,0,390.74,323.58Z" transform="translate(-88.32 -50.29)"/><path class="cls-4" d="M391.11,302.37l5.94,10.28a2.82,2.82,0,0,0,4.89,0h0a2.81,2.81,0,0,0,0-2.83L396,299.55a2.83,2.83,0,0,0-4.9,0h0A2.84,2.84,0,0,0,391.11,302.37Z" transform="translate(-88.32 -50.29)"/><path class="cls-4" d="M372.84,270.72l1.94,3.36a2.82,2.82,0,0,0,4.89,0h0a2.79,2.79,0,0,0,0-2.82l-1.93-3.35a2.83,2.83,0,0,0-2.45-1.42h0A2.83,2.83,0,0,0,372.84,270.72Z" transform="translate(-88.32 -50.29)"/><path class="cls-4" d="M381.31,285.39l3.27,5.67a2.83,2.83,0,0,0,4.9,0h0a2.86,2.86,0,0,0,0-2.83l-3.27-5.67a2.83,2.83,0,0,0-4.9,0h0A2.79,2.79,0,0,0,381.31,285.39Z" transform="translate(-88.32 -50.29)"/><path class="cls-4" d="M384.21,334.89H377.5a2.83,2.83,0,0,0-2.45,4.24h0a2.83,2.83,0,0,0,2.45,1.42h6.7a2.82,2.82,0,0,0,2.45-1.42h0A2.83,2.83,0,0,0,384.21,334.89Z" transform="translate(-88.32 -50.29)"/><path class="cls-4" d="M364.44,334.89h0a2.83,2.83,0,0,0-2.45,4.24h0a2.82,2.82,0,0,0,2.45,1.42h0a2.83,2.83,0,0,0,2.45-4.25h0A2.84,2.84,0,0,0,364.44,334.89Z" transform="translate(-88.32 -50.29)"/><path class="cls-4" d="M338.7,285.38l8.46-14.66a2.83,2.83,0,0,0-2.45-4.24h0a2.83,2.83,0,0,0-2.45,1.42l-8.46,14.65a2.81,2.81,0,0,0,0,2.83h0A2.83,2.83,0,0,0,338.7,285.38Z" transform="translate(-88.32 -50.29)"/><path class="cls-4" d="M323,312.65l9.21-15.95a2.81,2.81,0,0,0,0-2.83h0a2.82,2.82,0,0,0-4.89,0l-9.21,15.95a2.81,2.81,0,0,0,0,2.83h0A2.82,2.82,0,0,0,323,312.65Z" transform="translate(-88.32 -50.29)"/><path class="cls-4" d="M351.38,334.89H335.79a2.83,2.83,0,0,0-2.44,4.24h0a2.82,2.82,0,0,0,2.45,1.42h15.58a2.84,2.84,0,0,0,2.45-4.25h0A2.84,2.84,0,0,0,351.38,334.89Z" transform="translate(-88.32 -50.29)"/></g><g id="Cut_line" data-name="Cut line"><path class="cls-5" d="M319.47,349l-16.93-29.31a17,17,0,0,1,0-17L328.38,258a17,17,0,0,1,14.7-8.49h33.84a17,17,0,0,1,14.7,8.49l25.84,44.75a17,17,0,0,1,0,17L400.53,349a17,17,0,0,1-14.69,8.48H334.16A17,17,0,0,1,319.47,349Z" transform="translate(-88.32 -50.29)"/></g><g id="Instructions"><path class="cls-6" d="M179.84,51.82h8.93c5.95,0,11.52,3.65,11.52,11.33s-6.56,11.33-12,11.33h-8.45Zm7,19c5.06,0,9.18-2.18,9.18-7.68s-3.58-7.68-8.51-7.68h-3.68V70.83Z" transform="translate(-88.32 -50.29)"/><path class="cls-6" d="M205.73,51.6a2.31,2.31,0,1,1-2.43,2.3A2.35,2.35,0,0,1,205.73,51.6Zm-1.89,7.52h3.84V74.48h-3.84Z" transform="translate(-88.32 -50.29)"/><path class="cls-6" d="M215.17,68.14a4,4,0,0,0,4.12,3.65,5.06,5.06,0,0,0,4.13-2.08l2.75,2.08a8,8,0,0,1-6.49,3.07c-4.64,0-8.35-3.23-8.35-8.06s3.71-8.07,8.35-8.07c4.29,0,7.2,3,7.2,8.35v1.06ZM223,65.26c0-2.24-1.51-3.65-3.91-3.65a3.81,3.81,0,0,0-4,3.65Z" transform="translate(-88.32 -50.29)"/><path class="cls-6" d="M255.84,57.13a6.18,6.18,0,0,0-4.77-2.24c-4.67,0-7.78,3.59-7.78,8.1,0,4.83,3.11,8.41,7.78,8.41a6.38,6.38,0,0,0,5.09-2.75L259.49,71a10,10,0,0,1-8.45,4c-7,0-12-4.73-12-11.8,0-7.27,5-12,12-12A9.84,9.84,0,0,1,259,54.83Z" transform="translate(-88.32 -50.29)"/><path class="cls-6" d="M275.87,74.48h-3.65V72h-.06a4.82,4.82,0,0,1-4.71,2.85c-4.12,0-5.6-2.91-5.6-6V59.12h3.84v7.77c0,1.7.13,4.51,2.82,4.51,2.53,0,3.52-1.85,3.52-3.9V59.12h3.84Z" transform="translate(-88.32 -50.29)"/><path class="cls-6" d="M278.43,62.38V59.12h3.17V54.67h3.84v4.45h4.22v3.26h-4.22V69.1c0,1.54.45,2.5,2.14,2.5a4,4,0,0,0,2.08-.48v3.23a8.17,8.17,0,0,1-3,.51c-4.06,0-5-1.82-5-5.44v-7Z" transform="translate(-88.32 -50.29)"/><path class="cls-6" d="M313.6,56.69a4.78,4.78,0,0,0-4-1.8c-1.86,0-3.71.84-3.71,2.92,0,4.54,10.75,1.95,10.75,10,0,4.86-3.84,7.23-8.29,7.23A9.37,9.37,0,0,1,301,72L304,69a5.35,5.35,0,0,0,4.48,2.36c1.85,0,4-1,4-3.1,0-5-10.75-2.11-10.75-10.21,0-4.67,4.16-6.84,8.35-6.84a9.32,9.32,0,0,1,6.5,2.33Z" transform="translate(-88.32 -50.29)"/><path class="cls-6" d="M318.72,62.38V59.12h3.17V54.67h3.84v4.45H330v3.26h-4.22V69.1c0,1.54.44,2.5,2.14,2.5a4,4,0,0,0,2.08-.48v3.23a8.2,8.2,0,0,1-3,.51c-4.06,0-5-1.82-5-5.44v-7Z" transform="translate(-88.32 -50.29)"/><path class="cls-6" d="M334.91,51.6a2.31,2.31,0,1,1-2.43,2.3A2.35,2.35,0,0,1,334.91,51.6ZM333,59.12h3.84V74.48H333Z" transform="translate(-88.32 -50.29)"/><path class="cls-6" d="M351.77,63.73a4.24,4.24,0,0,0-2.91-1.54,4.61,4.61,0,0,0,0,9.21,3.7,3.7,0,0,0,3-1.44l2.56,2.76a8.75,8.75,0,0,1-5.54,2.14c-4.64,0-8.35-3.23-8.35-8.06s3.71-8.07,8.35-8.07a7.52,7.52,0,0,1,5.57,2.34Z" transform="translate(-88.32 -50.29)"/><path class="cls-6" d="M356.7,50.29h3.84v15.2l5.92-6.37h4.93l-6.59,7,7,8.39h-5.08l-6.12-7.84h-.06v7.84H356.7Z" transform="translate(-88.32 -50.29)"/><path class="cls-6" d="M377,68.14a4,4,0,0,0,4.12,3.65,5.06,5.06,0,0,0,4.13-2.08L388,71.79a8,8,0,0,1-6.49,3.07c-4.64,0-8.35-3.23-8.35-8.06s3.71-8.07,8.35-8.07c4.29,0,7.2,3,7.2,8.35v1.06Zm7.87-2.88c0-2.24-1.51-3.65-3.91-3.65a3.81,3.81,0,0,0-4,3.65Z" transform="translate(-88.32 -50.29)"/><path class="cls-6" d="M392.25,59.12h3.84v2.43h.07A4.89,4.89,0,0,1,402.08,59v3.71a7.72,7.72,0,0,0-1.86-.29,3.86,3.86,0,0,0-4.13,3.87v8.23h-3.84Z" transform="translate(-88.32 -50.29)"/><path class="cls-6" d="M419.16,55.47h-6.94V51.82h17.92v3.65H423.2v19h-4Z" transform="translate(-88.32 -50.29)"/><path class="cls-6" d="M435.61,68.14a4,4,0,0,0,4.13,3.65,5.06,5.06,0,0,0,4.13-2.08l2.75,2.08a8,8,0,0,1-6.5,3.07c-4.64,0-8.35-3.23-8.35-8.06s3.71-8.07,8.35-8.07c4.29,0,7.2,3,7.2,8.35v1.06Zm7.87-2.88c0-2.24-1.5-3.65-3.9-3.65a3.82,3.82,0,0,0-4,3.65Z" transform="translate(-88.32 -50.29)"/><path class="cls-6" d="M450.75,59.12h3.64v2.4h.07a4.88,4.88,0,0,1,4.7-2.79c2.37,0,4,.93,4.8,2.85A5.35,5.35,0,0,1,469,58.73c4.09,0,5.53,2.92,5.53,6.59v9.16h-3.84V65.77c0-1.92-.57-3.58-2.84-3.58s-3.3,2-3.3,4v8.32h-3.84V65.32c0-1.88-.77-3.13-2.62-3.13-2.53,0-3.52,1.86-3.52,3.9v8.39h-3.84Z" transform="translate(-88.32 -50.29)"/><path class="cls-6" d="M478.75,59.12h3.64v2.3h.07a5.93,5.93,0,0,1,5.28-2.69c4.73,0,7.58,3.52,7.58,8.07s-3,8.06-7.42,8.06a6.31,6.31,0,0,1-5.22-2.34h-.09v9.25h-3.84ZM487,62.19a4.61,4.61,0,1,0,4.51,4.61A4.44,4.44,0,0,0,487,62.19Z" transform="translate(-88.32 -50.29)"/><path class="cls-6" d="M499,50.29h3.84V74.48H499Z" transform="translate(-88.32 -50.29)"/><path class="cls-6" d="M516.83,72.36h-.1a5.52,5.52,0,0,1-4.93,2.5c-2.85,0-5.6-1.57-5.6-4.61,0-5,5.83-5.34,9.67-5.34h1v-.42c0-1.88-1.48-2.88-3.52-2.88a6,6,0,0,0-4.1,1.6l-2-2a9,9,0,0,1,6.53-2.47c6.56,0,6.56,4.74,6.56,6.91v8.84h-3.45Zm-.23-4.76h-.8c-2.11,0-5.76.16-5.76,2.36,0,1.41,1.44,2,2.69,2,2.62,0,3.87-1.38,3.87-3.52Z" transform="translate(-88.32 -50.29)"/><path class="cls-6" d="M522.62,62.38V59.12h3.17V54.67h3.84v4.45h4.22v3.26h-4.22V69.1c0,1.54.44,2.5,2.14,2.5a4,4,0,0,0,2.08-.48v3.23a8.17,8.17,0,0,1-3,.51c-4.06,0-5-1.82-5-5.44v-7Z" transform="translate(-88.32 -50.29)"/><path class="cls-6" d="M539.93,68.14a4,4,0,0,0,4.13,3.65,5,5,0,0,0,4.12-2.08l2.76,2.08a8,8,0,0,1-6.5,3.07c-4.64,0-8.35-3.23-8.35-8.06s3.71-8.07,8.35-8.07c4.29,0,7.2,3,7.2,8.35v1.06Zm7.87-2.88c0-2.24-1.5-3.65-3.9-3.65a3.82,3.82,0,0,0-4,3.65Z" transform="translate(-88.32 -50.29)"/><path class="cls-6" d="M357.88,508.2a4.09,4.09,0,0,1-3.41,1.69,4.84,4.84,0,0,1,0-9.68,4,4,0,0,1,3.19,1.46l-.82.61a3,3,0,0,0-2.37-1.21,4,4,0,0,0,0,8,3,3,0,0,0,2.64-1.38Z" transform="translate(-88.32 -50.29)"/><path class="cls-6" d="M363.53,509.65c0-.32,0-.65,0-1h0a2.47,2.47,0,0,1-2,1.13,2.09,2.09,0,0,1-2.29-2.38v-3.86H360v3.36c0,1.36.38,2.1,1.65,2.1.18,0,1.85-.12,1.85-2.34v-3.12h.85v4.74c0,.33,0,.9.07,1.34Z" transform="translate(-88.32 -50.29)"/><path class="cls-6" d="M369.51,504.35h-1.75v3.59c0,.91.35,1.09.88,1.09a1.85,1.85,0,0,0,.89-.24l0,.8a3,3,0,0,1-1.16.22,1.42,1.42,0,0,1-1.51-1.63v-3.83h-1.29v-.78h1.29v-1.72h.86v1.72h1.75Z" transform="translate(-88.32 -50.29)"/><path class="cls-6" d="M375.35,509.65h-.86v-9.83h.86Z" transform="translate(-88.32 -50.29)"/><path class="cls-6" d="M378,501.85a.63.63,0,0,1,0-1.25.63.63,0,1,1,0,1.25Zm.43,7.8h-.86v-6.08h.86Z" transform="translate(-88.32 -50.29)"/><path class="cls-6" d="M381.36,503.57a7.87,7.87,0,0,1,0,1h0a2.47,2.47,0,0,1,2-1.13,2.09,2.09,0,0,1,2.29,2.38v3.86h-.86v-3.37c0-1.35-.37-2.09-1.65-2.09-.18,0-1.84.12-1.84,2.34v3.12h-.86v-4.74c0-.33,0-.9-.07-1.34Z" transform="translate(-88.32 -50.29)"/><path class="cls-6" d="M388.36,506.84a2.27,2.27,0,0,0,4.19,1.13l.66.55a3.17,3.17,0,0,1-2.61,1.29,3.2,3.2,0,0,1-.08-6.4,2.85,2.85,0,0,1,2.91,3v.39Zm4.14-.7a1.84,1.84,0,0,0-2-1.95,2.14,2.14,0,0,0-2.13,1.95Z" transform="translate(-88.32 -50.29)"/><path class="cls-6" d="M398.22,505a1.43,1.43,0,0,0-1.32-.82c-.59,0-1.26.26-1.26.91s.41.78,1.2,1l.87.21a1.76,1.76,0,0,1,1.48,1.67c0,1.32-1.18,1.87-2.36,1.87a2.64,2.64,0,0,1-2.34-1.19l.74-.5a1.85,1.85,0,0,0,1.6.91c.7,0,1.43-.31,1.43-1s-.52-.82-1.16-1l-.83-.2c-.42-.1-1.56-.44-1.56-1.6s1.1-1.83,2.25-1.83a2.1,2.1,0,0,1,2,1.09Z" transform="translate(-88.32 -50.29)"/><rect class="cls-5" x="232.08" y="445.46" width="18" height="18"/><circle class="cls-7" cx="8.82" cy="523.3" r="8.46"/><path class="cls-6" d="M113.54,570.8h2.06c1.44,0,2.33.62,2.33,1.89s-.89,1.9-2.33,1.9h-1.34v3.29h-.72Zm.72,3.13h1.16c1.29,0,1.73-.56,1.73-1.24s-.44-1.23-1.73-1.23h-1.16Z" transform="translate(-88.32 -50.29)"/><path class="cls-6" d="M122,575v-.12a1.06,1.06,0,0,0-1.2-1.21,2.08,2.08,0,0,0-1.43.55l-.4-.47a2.68,2.68,0,0,1,2-.68,1.57,1.57,0,0,1,1.71,1.66v2.09a7.63,7.63,0,0,0,.08,1h-.64a4.68,4.68,0,0,1-.06-.76h0a1.75,1.75,0,0,1-1.65.88,1.44,1.44,0,0,1-1.61-1.37c0-1.52,1.79-1.62,2.91-1.62Zm-.34.54c-.67,0-2.18.05-2.18,1,0,.62.57.86,1.1.86a1.37,1.37,0,0,0,1.42-1.51v-.34Z" transform="translate(-88.32 -50.29)"/><path class="cls-6" d="M126.71,574.31a1.09,1.09,0,0,0-1-.63c-.46,0-1,.2-1,.7s.31.6.92.74l.67.16a1.34,1.34,0,0,1,1.14,1.28c0,1-.91,1.44-1.82,1.44a2,2,0,0,1-1.8-.91l.57-.39a1.42,1.42,0,0,0,1.23.7c.54,0,1.1-.24,1.1-.78s-.4-.63-.89-.75l-.64-.15c-.32-.08-1.2-.34-1.2-1.23s.85-1.41,1.73-1.41a1.62,1.62,0,0,1,1.56.84Z" transform="translate(-88.32 -50.29)"/><path class="cls-6" d="M130.91,573.8h-1.35v2.76c0,.7.27.84.68.84a1.47,1.47,0,0,0,.68-.18l0,.61a2.21,2.21,0,0,1-.89.17,1.09,1.09,0,0,1-1.16-1.25v-3h-1v-.6h1v-1.32h.66v1.32h1.35Z" transform="translate(-88.32 -50.29)"/><path class="cls-6" d="M132.27,575.72a1.75,1.75,0,0,0,3.22.87l.51.42a2.44,2.44,0,0,1-2,1,2.46,2.46,0,0,1-.06-4.92,2.19,2.19,0,0,1,2.24,2.34v.3Zm3.18-.54a1.41,1.41,0,0,0-1.52-1.5,1.65,1.65,0,0,0-1.64,1.5Z" transform="translate(-88.32 -50.29)"/><path class="cls-6" d="M141.89,577.07l1.43-3.87h.8l-2.34,5.9c-.28.71-.66,1.17-1.47,1.17a2.12,2.12,0,0,1-.61-.07l.07-.63a1.18,1.18,0,0,0,.5.1c.46,0,.7-.31.9-.84l.34-.89-1.92-4.74h.83Z" transform="translate(-88.32 -50.29)"/><path class="cls-6" d="M147.21,578a2.46,2.46,0,1,1,2.49-2.46A2.39,2.39,0,0,1,147.21,578Zm0-4.32a1.86,1.86,0,1,0,1.77,1.86A1.73,1.73,0,0,0,147.21,573.68Z" transform="translate(-88.32 -50.29)"/><path class="cls-6" d="M154.28,577.88a6.27,6.27,0,0,1,0-.75h0a1.89,1.89,0,0,1-1.57.87,1.6,1.6,0,0,1-1.76-1.83v-3h.66v2.59c0,1,.29,1.61,1.27,1.61.14,0,1.42-.09,1.42-1.8v-2.4h.66v3.65c0,.25,0,.69.05,1Z" transform="translate(-88.32 -50.29)"/><path class="cls-6" d="M156.53,574.66c0-.42,0-.78,0-1.46h.65v.87h0a1.54,1.54,0,0,1,1.5-1,1.77,1.77,0,0,1,.49.06l-.13.65a1.11,1.11,0,0,0-.38,0,1.46,1.46,0,0,0-1.45,1.5v2.64h-.66Z" transform="translate(-88.32 -50.29)"/><path class="cls-6" d="M165,574.31a1.09,1.09,0,0,0-1-.63c-.46,0-1,.2-1,.7s.31.6.92.74l.67.16a1.34,1.34,0,0,1,1.14,1.28c0,1-.91,1.44-1.82,1.44a2,2,0,0,1-1.8-.91l.57-.39a1.42,1.42,0,0,0,1.23.7c.54,0,1.1-.24,1.1-.78s-.4-.63-.89-.75l-.64-.15c-.32-.08-1.2-.34-1.2-1.23s.85-1.41,1.73-1.41a1.62,1.62,0,0,1,1.56.84Z" transform="translate(-88.32 -50.29)"/><path class="cls-6" d="M169.24,573.8h-1.35v2.76c0,.7.27.84.68.84a1.47,1.47,0,0,0,.68-.18l0,.61a2.21,2.21,0,0,1-.89.17,1.09,1.09,0,0,1-1.16-1.25v-3h-1v-.6h1v-1.32h.66v1.32h1.35Z" transform="translate(-88.32 -50.29)"/><path class="cls-6" d="M170.62,571.88a.48.48,0,1,1,.48-.48A.49.49,0,0,1,170.62,571.88Zm.33,6h-.66V573.2H171Z" transform="translate(-88.32 -50.29)"/><path class="cls-6" d="M176,574.3a1.4,1.4,0,0,0-1.17-.62,1.86,1.86,0,0,0,0,3.72,1.4,1.4,0,0,0,1.17-.62l.54.41a2.26,2.26,0,0,1-1.71.81,2.46,2.46,0,1,1,0-4.92,2.26,2.26,0,0,1,1.71.81Z" transform="translate(-88.32 -50.29)"/><path class="cls-6" d="M178,575.31l2.21-2.11h1l-2.33,2.14,2.58,2.54h-1L178,575.42v2.46h-.66v-7.56H178Z" transform="translate(-88.32 -50.29)"/><path class="cls-6" d="M182.64,575.72a1.75,1.75,0,0,0,3.22.87l.51.42a2.44,2.44,0,0,1-2,1,2.46,2.46,0,0,1-.06-4.92,2.19,2.19,0,0,1,2.24,2.34v.3Zm3.18-.54a1.41,1.41,0,0,0-1.52-1.5,1.65,1.65,0,0,0-1.64,1.5Z" transform="translate(-88.32 -50.29)"/><path class="cls-6" d="M187.81,574.66c0-.42,0-.78,0-1.46h.65v.87h0a1.54,1.54,0,0,1,1.5-1,1.77,1.77,0,0,1,.49.06l-.13.65a1.11,1.11,0,0,0-.38,0,1.46,1.46,0,0,0-1.45,1.5v2.64h-.66Z" transform="translate(-88.32 -50.29)"/><path class="cls-6" d="M198.5,577.88h-.65v-.78h0a2.24,2.24,0,0,1-1.82.9,2.46,2.46,0,1,1,0-4.92,2.24,2.24,0,0,1,1.82.9h0v-3.66h.65ZM196,577.4a1.86,1.86,0,1,0,0-3.72,1.86,1.86,0,0,0,0,3.72Z" transform="translate(-88.32 -50.29)"/><path class="cls-6" d="M200.41,575.72a1.76,1.76,0,0,0,1.72,1.68,1.74,1.74,0,0,0,1.49-.81l.51.42a2.42,2.42,0,0,1-2,1,2.46,2.46,0,0,1-.06-4.92,2.19,2.19,0,0,1,2.23,2.34v.3Zm3.17-.54a1.4,1.4,0,0,0-1.51-1.5,1.65,1.65,0,0,0-1.64,1.5Z" transform="translate(-88.32 -50.29)"/><path class="cls-6" d="M208,574.31a1.09,1.09,0,0,0-1-.63c-.46,0-1,.2-1,.7s.31.6.92.74l.67.16a1.34,1.34,0,0,1,1.14,1.28c0,1-.91,1.44-1.82,1.44a2,2,0,0,1-1.8-.91l.57-.39a1.42,1.42,0,0,0,1.23.7c.54,0,1.1-.24,1.1-.78s-.4-.63-.89-.75l-.64-.15c-.32-.08-1.2-.34-1.2-1.23s.85-1.41,1.73-1.41a1.62,1.62,0,0,1,1.56.84Z" transform="translate(-88.32 -50.29)"/><path class="cls-6" d="M210.25,571.88a.48.48,0,1,1,.48-.48A.49.49,0,0,1,210.25,571.88Zm.33,6h-.66V573.2h.66Z" transform="translate(-88.32 -50.29)"/><path class="cls-6" d="M212.53,578.82a2.24,2.24,0,0,0,1.79.85,1.64,1.64,0,0,0,1.81-1.83V577h0a2,2,0,0,1-1.74.88,2.37,2.37,0,0,1-2.44-2.38,2.35,2.35,0,0,1,2.38-2.42,2.13,2.13,0,0,1,1.8.9h0v-.78h.66v4.64a2.23,2.23,0,0,1-2.5,2.43,2.9,2.9,0,0,1-2.25-.94Zm1.86-1.54a1.8,1.8,0,0,0,0-3.6,1.8,1.8,0,0,0,0,3.6Z" transform="translate(-88.32 -50.29)"/><path class="cls-6" d="M218.91,573.2a6.27,6.27,0,0,1,0,.75h0a1.89,1.89,0,0,1,1.57-.87,1.6,1.6,0,0,1,1.75,1.83v3h-.66v-2.59c0-1-.29-1.61-1.26-1.61-.14,0-1.42.09-1.42,1.8v2.4h-.66v-3.65c0-.25,0-.69-.05-1Z" transform="translate(-88.32 -50.29)"/><path class="cls-6" d="M115.54,595.36A2.46,2.46,0,1,1,118,592.9,2.39,2.39,0,0,1,115.54,595.36Zm0-4.32a1.86,1.86,0,1,0,1.77,1.86A1.73,1.73,0,0,0,115.54,591Z" transform="translate(-88.32 -50.29)"/><path class="cls-6" d="M119.86,590.56a6.27,6.27,0,0,1,0,.75h0a1.89,1.89,0,0,1,1.57-.87,1.6,1.6,0,0,1,1.76,1.83v3h-.66v-2.59c0-1-.29-1.61-1.27-1.61-.14,0-1.42.09-1.42,1.8v2.4h-.66v-3.65c0-.25,0-.69,0-1Z" transform="translate(-88.32 -50.29)"/><path class="cls-6" d="M127.21,591.16h-1.35v2.76c0,.7.27.84.68.84a1.47,1.47,0,0,0,.68-.18l0,.61a2.21,2.21,0,0,1-.89.17,1.09,1.09,0,0,1-1.16-1.25v-3h-1v-.6h1v-1.32h.66v1.32h1.35Z" transform="translate(-88.32 -50.29)"/><path class="cls-6" d="M130.35,595.36a2.46,2.46,0,1,1,2.49-2.46A2.39,2.39,0,0,1,130.35,595.36Zm0-4.32a1.86,1.86,0,1,0,1.77,1.86A1.73,1.73,0,0,0,130.35,591Z" transform="translate(-88.32 -50.29)"/><path class="cls-6" d="M139.24,591.16h-1.35v2.76c0,.7.27.84.68.84a1.47,1.47,0,0,0,.68-.18l0,.61a2.21,2.21,0,0,1-.89.17,1.09,1.09,0,0,1-1.16-1.25v-3h-1v-.6h1v-1.32h.66v1.32h1.35Z" transform="translate(-88.32 -50.29)"/><path class="cls-6" d="M140.14,587.68h.66v3.63h0a1.89,1.89,0,0,1,1.57-.87,1.6,1.6,0,0,1,1.76,1.83v3h-.66v-2.59c0-1-.29-1.61-1.27-1.61-.14,0-1.42.09-1.42,1.8v2.4h-.66Z" transform="translate(-88.32 -50.29)"/><path class="cls-6" d="M146.16,593.08a1.75,1.75,0,0,0,3.22.87l.51.42a2.44,2.44,0,0,1-2,1,2.46,2.46,0,0,1-.06-4.92,2.19,2.19,0,0,1,2.24,2.34v.3Zm3.18-.54a1.41,1.41,0,0,0-1.52-1.5,1.65,1.65,0,0,0-1.64,1.5Z" transform="translate(-88.32 -50.29)"/><path class="cls-6" d="M156.45,588.16h.87l3,7.08h-1.12l-.71-1.75h-3.37l-.7,1.75h-1.12Zm1.72,4.49-1.32-3.25h0l-1.34,3.25Z" transform="translate(-88.32 -50.29)"/><path class="cls-6" d="M161,590.5h.9v.73h0a1.6,1.6,0,0,1,1.42-.85,1.29,1.29,0,0,1,.4.06l0,1a1.75,1.75,0,0,0-.44-.07c-.88,0-1.36.48-1.36,1.52v2.38H161Z" transform="translate(-88.32 -50.29)"/><path class="cls-6" d="M167.28,591.28H166v2.15c0,.53,0,1.09.68,1.09a1.28,1.28,0,0,0,.64-.14v.82a2,2,0,0,1-.81.16c-1.39,0-1.41-.85-1.41-1.61v-2.47h-1v-.78h1v-1.33h.9v1.33h1.29Z" transform="translate(-88.32 -50.29)"/><path class="cls-6" d="M167.87,590.5h1L170,594h0l1.13-3.54h1l1.2,3.54h0l1-3.54h1l-1.53,4.74h-.91l-1.25-3.54h0l-1.13,3.54h-1Z" transform="translate(-88.32 -50.29)"/><path class="cls-6" d="M178.32,590.38a2.49,2.49,0,1,1-2.52,2.49A2.49,2.49,0,0,1,178.32,590.38Zm0,4.14a1.65,1.65,0,1,0-1.56-1.65A1.52,1.52,0,0,0,178.32,594.52Z" transform="translate(-88.32 -50.29)"/><path class="cls-6" d="M182,590.5h.9v.73h0a1.6,1.6,0,0,1,1.42-.85,1.29,1.29,0,0,1,.4.06l0,1a1.75,1.75,0,0,0-.44-.07c-.88,0-1.36.48-1.36,1.52v2.38H182Z" transform="translate(-88.32 -50.29)"/><path class="cls-6" d="M185.67,587.68h.9v4.88l2-2h1.25l-2.21,2.15,2.4,2.58h-1.28l-2.2-2.46v2.46h-.9Z" transform="translate(-88.32 -50.29)"/><path class="cls-6" d="M194.49,595.24h-.66v-7.56h.66Z" transform="translate(-88.32 -50.29)"/><path class="cls-6" d="M199.08,592.37v-.12a1.06,1.06,0,0,0-1.2-1.21,2.08,2.08,0,0,0-1.43.55l-.4-.47a2.68,2.68,0,0,1,2-.68,1.57,1.57,0,0,1,1.71,1.66v2.09a7.63,7.63,0,0,0,.08,1h-.64a4.68,4.68,0,0,1-.06-.76h0a1.75,1.75,0,0,1-1.65.88,1.44,1.44,0,0,1-1.61-1.37c0-1.52,1.79-1.62,2.91-1.62Zm-.34.54c-.67,0-2.18.05-2.18,1,0,.62.57.86,1.1.86a1.37,1.37,0,0,0,1.42-1.51v-.34Z" transform="translate(-88.32 -50.29)"/><path class="cls-6" d="M203,594.43l1.43-3.87h.8l-2.34,5.9c-.28.72-.66,1.18-1.47,1.18a2.12,2.12,0,0,1-.61-.07l.07-.64a1,1,0,0,0,.5.11c.46,0,.7-.31.9-.84l.34-.9-1.92-4.74h.83Z" transform="translate(-88.32 -50.29)"/><path class="cls-6" d="M206.55,593.08a1.75,1.75,0,0,0,3.22.87l.51.42a2.44,2.44,0,0,1-2,1,2.46,2.46,0,0,1-.06-4.92,2.19,2.19,0,0,1,2.24,2.34v.3Zm3.18-.54a1.41,1.41,0,0,0-1.52-1.5,1.65,1.65,0,0,0-1.64,1.5Z" transform="translate(-88.32 -50.29)"/><path class="cls-6" d="M211.72,592c0-.42,0-.78,0-1.46h.65v.87h0a1.54,1.54,0,0,1,1.5-1,1.77,1.77,0,0,1,.49.06l-.13.65a1.11,1.11,0,0,0-.38,0,1.46,1.46,0,0,0-1.45,1.5v2.64h-.66Z" transform="translate(-88.32 -50.29)"/><path class="cls-6" d="M215.64,595.3a.54.54,0,1,1,.54-.54A.54.54,0,0,1,215.64,595.3Z" transform="translate(-88.32 -50.29)"/><path class="cls-6" d="M97.77,577.44h-.72v-6.18l-1.27,1.12-.45-.54,1.8-1.48h.64Z" transform="translate(-88.32 -50.29)"/><circle class="cls-7" cx="207.58" cy="523.3" r="8.46"/><path class="cls-6" d="M313,577.88h-.72V570.8h2.18c1.44,0,2.33.62,2.33,1.89a1.8,1.8,0,0,1-1.81,1.83l2,3.36h-.88l-1.94-3.29H313Zm0-4h1.28c1.29,0,1.73-.56,1.73-1.24s-.44-1.23-1.73-1.23H313Z" transform="translate(-88.32 -50.29)"/><path class="cls-6" d="M318.45,575.72a1.75,1.75,0,0,0,3.22.87l.51.42a2.44,2.44,0,0,1-2,1,2.46,2.46,0,0,1-.06-4.92,2.19,2.19,0,0,1,2.24,2.34v.3Zm3.18-.54a1.41,1.41,0,0,0-1.52-1.5,1.65,1.65,0,0,0-1.64,1.5Z" transform="translate(-88.32 -50.29)"/><path class="cls-6" d="M323.55,573.2h.66V574h0a2.24,2.24,0,0,1,1.82-.9,2.46,2.46,0,1,1,0,4.92,2.24,2.24,0,0,1-1.82-.9h0v3.65h-.66Zm2.5.48a1.86,1.86,0,1,0,0,3.72,1.86,1.86,0,0,0,0-3.72Z" transform="translate(-88.32 -50.29)"/><path class="cls-6" d="M331.9,578a2.46,2.46,0,1,1,2.49-2.46A2.39,2.39,0,0,1,331.9,578Zm0-4.32a1.86,1.86,0,1,0,1.77,1.86A1.73,1.73,0,0,0,331.9,573.68Z" transform="translate(-88.32 -50.29)"/><path class="cls-6" d="M338.07,574.31a1.09,1.09,0,0,0-1-.63c-.46,0-1,.2-1,.7s.31.6.92.74l.67.16a1.34,1.34,0,0,1,1.14,1.28c0,1-.91,1.44-1.82,1.44a2,2,0,0,1-1.8-.91l.57-.39a1.42,1.42,0,0,0,1.23.7c.54,0,1.1-.24,1.1-.78s-.4-.63-.89-.75l-.64-.15c-.32-.08-1.2-.34-1.2-1.23s.85-1.41,1.73-1.41a1.62,1.62,0,0,1,1.56.84Z" transform="translate(-88.32 -50.29)"/><path class="cls-6" d="M340.33,571.88a.48.48,0,1,1,.48-.48A.49.49,0,0,1,340.33,571.88Zm.33,6H340V573.2h.66Z" transform="translate(-88.32 -50.29)"/><path class="cls-6" d="M344.67,573.8h-1.35v2.76c0,.7.27.84.68.84a1.47,1.47,0,0,0,.68-.18l0,.61a2.21,2.21,0,0,1-.89.17,1.09,1.09,0,0,1-1.16-1.25v-3h-1v-.6h1v-1.32h.66v1.32h1.35Z" transform="translate(-88.32 -50.29)"/><path class="cls-6" d="M346.05,571.88a.48.48,0,1,1,.48-.48A.49.49,0,0,1,346.05,571.88Zm.33,6h-.66V573.2h.66Z" transform="translate(-88.32 -50.29)"/><path class="cls-6" d="M350.21,578a2.46,2.46,0,1,1,2.49-2.46A2.39,2.39,0,0,1,350.21,578Zm0-4.32a1.86,1.86,0,1,0,1.77,1.86A1.73,1.73,0,0,0,350.21,573.68Z" transform="translate(-88.32 -50.29)"/><path class="cls-6" d="M354.53,573.2a6.27,6.27,0,0,1,0,.75h0a1.89,1.89,0,0,1,1.57-.87,1.6,1.6,0,0,1,1.76,1.83v3h-.66v-2.59c0-1-.29-1.61-1.27-1.61-.14,0-1.42.09-1.42,1.8v2.4h-.66v-3.65c0-.25,0-.69,0-1Z" transform="translate(-88.32 -50.29)"/><path class="cls-6" d="M365.24,575v-.12a1.06,1.06,0,0,0-1.2-1.21,2.08,2.08,0,0,0-1.43.55l-.4-.47a2.68,2.68,0,0,1,2-.68,1.57,1.57,0,0,1,1.71,1.66v2.09a7.63,7.63,0,0,0,.08,1h-.64a4.68,4.68,0,0,1-.06-.76h0a1.75,1.75,0,0,1-1.65.88,1.44,1.44,0,0,1-1.61-1.37c0-1.52,1.79-1.62,2.91-1.62Zm-.34.54c-.67,0-2.18.05-2.18,1,0,.62.57.86,1.1.86a1.37,1.37,0,0,0,1.42-1.51v-.34Z" transform="translate(-88.32 -50.29)"/><path class="cls-6" d="M368.06,573.2a6.27,6.27,0,0,1,0,.75h0a1.89,1.89,0,0,1,1.57-.87,1.6,1.6,0,0,1,1.76,1.83v3h-.66v-2.59c0-1-.29-1.61-1.27-1.61-.14,0-1.42.09-1.42,1.8v2.4h-.66v-3.65c0-.25,0-.69-.05-1Z" transform="translate(-88.32 -50.29)"/><path class="cls-6" d="M377.66,577.88H377v-.78h0a2.24,2.24,0,0,1-1.82.9,2.46,2.46,0,1,1,0-4.92,2.24,2.24,0,0,1,1.82.9h0v-3.66h.66Zm-2.5-.48a1.86,1.86,0,1,0,0-3.72,1.86,1.86,0,0,0,0,3.72Z" transform="translate(-88.32 -50.29)"/><path class="cls-6" d="M384.36,574.31a1.09,1.09,0,0,0-1-.63c-.46,0-1,.2-1,.7s.31.6.92.74l.67.16a1.34,1.34,0,0,1,1.14,1.28c0,1-.91,1.44-1.82,1.44a2,2,0,0,1-1.8-.91l.57-.39a1.42,1.42,0,0,0,1.23.7c.54,0,1.1-.24,1.1-.78s-.4-.63-.89-.75l-.64-.15c-.32-.08-1.2-.34-1.2-1.23s.85-1.41,1.73-1.41a1.62,1.62,0,0,1,1.56.84Z" transform="translate(-88.32 -50.29)"/><path class="cls-6" d="M389.55,574.3a1.4,1.4,0,0,0-1.17-.62,1.86,1.86,0,0,0,0,3.72,1.4,1.4,0,0,0,1.17-.62l.54.41a2.26,2.26,0,0,1-1.71.81,2.46,2.46,0,1,1,0-4.92,2.26,2.26,0,0,1,1.71.81Z" transform="translate(-88.32 -50.29)"/><path class="cls-6" d="M394,575v-.12a1.06,1.06,0,0,0-1.2-1.21,2.08,2.08,0,0,0-1.43.55l-.4-.47a2.68,2.68,0,0,1,2-.68,1.57,1.57,0,0,1,1.71,1.66v2.09a7.63,7.63,0,0,0,.08,1h-.64a4.68,4.68,0,0,1-.06-.76h0a1.75,1.75,0,0,1-1.65.88,1.44,1.44,0,0,1-1.61-1.37c0-1.52,1.79-1.62,2.91-1.62Zm-.34.54c-.67,0-2.18.05-2.18,1,0,.62.57.86,1.1.86a1.37,1.37,0,0,0,1.42-1.51v-.34Z" transform="translate(-88.32 -50.29)"/><path class="cls-6" d="M397,577.88h-.66v-7.56H397Z" transform="translate(-88.32 -50.29)"/><path class="cls-6" d="M399,575.72a1.75,1.75,0,0,0,3.22.87l.51.42a2.44,2.44,0,0,1-2,1,2.46,2.46,0,0,1-.06-4.92,2.19,2.19,0,0,1,2.24,2.34v.3Zm3.18-.54a1.41,1.41,0,0,0-1.52-1.5,1.65,1.65,0,0,0-1.64,1.5Z" transform="translate(-88.32 -50.29)"/><path class="cls-6" d="M408.63,577.07l1.43-3.87h.8l-2.34,5.9c-.28.71-.66,1.17-1.47,1.17a2.12,2.12,0,0,1-.61-.07l.07-.63a1.18,1.18,0,0,0,.5.1c.46,0,.7-.31.9-.84l.34-.89-1.92-4.74h.83Z" transform="translate(-88.32 -50.29)"/><path class="cls-6" d="M414,578a2.46,2.46,0,1,1,2.49-2.46A2.39,2.39,0,0,1,414,578Zm0-4.32a1.86,1.86,0,1,0,1.77,1.86A1.73,1.73,0,0,0,414,573.68Z" transform="translate(-88.32 -50.29)"/><path class="cls-6" d="M421,577.88a6.27,6.27,0,0,1,0-.75h0a1.89,1.89,0,0,1-1.57.87,1.6,1.6,0,0,1-1.76-1.83v-3h.66v2.59c0,1,.29,1.61,1.27,1.61.14,0,1.42-.09,1.42-1.8v-2.4h.66v3.65c0,.25,0,.69.05,1Z" transform="translate(-88.32 -50.29)"/><path class="cls-6" d="M423.27,574.66c0-.42,0-.78,0-1.46h.65v.87h0a1.54,1.54,0,0,1,1.5-1,1.77,1.77,0,0,1,.49.06l-.13.65a1.11,1.11,0,0,0-.38,0,1.46,1.46,0,0,0-1.45,1.5v2.64h-.66Z" transform="translate(-88.32 -50.29)"/><path class="cls-6" d="M316.73,595.24h-.66v-.78h0a2.24,2.24,0,0,1-1.82.9,2.46,2.46,0,1,1,0-4.92,2.24,2.24,0,0,1,1.82.9h0v-3.66h.66Zm-2.5-.48a1.86,1.86,0,1,0,0-3.72,1.86,1.86,0,0,0,0,3.72Z" transform="translate(-88.32 -50.29)"/><path class="cls-6" d="M318.63,593.08a1.75,1.75,0,0,0,3.22.87l.51.42a2.44,2.44,0,0,1-2,1,2.46,2.46,0,0,1-.06-4.92,2.19,2.19,0,0,1,2.24,2.34v.3Zm3.18-.54a1.41,1.41,0,0,0-1.52-1.5,1.65,1.65,0,0,0-1.64,1.5Z" transform="translate(-88.32 -50.29)"/><path class="cls-6" d="M326.21,591.67a1.09,1.09,0,0,0-1-.63c-.46,0-1,.2-1,.7s.31.6.92.74l.67.16a1.34,1.34,0,0,1,1.14,1.28c0,1-.91,1.44-1.82,1.44a2,2,0,0,1-1.8-.91l.57-.39a1.42,1.42,0,0,0,1.23.7c.54,0,1.1-.24,1.1-.78s-.4-.63-.89-.75l-.64-.15c-.32-.08-1.2-.34-1.2-1.23s.85-1.41,1.73-1.41a1.62,1.62,0,0,1,1.56.84Z" transform="translate(-88.32 -50.29)"/><path class="cls-6" d="M328.47,589.24a.48.48,0,1,1,.48-.48A.49.49,0,0,1,328.47,589.24Zm.33,6h-.66v-4.68h.66Z" transform="translate(-88.32 -50.29)"/><path class="cls-6" d="M330.75,596.18a2.22,2.22,0,0,0,1.79.86,1.65,1.65,0,0,0,1.82-1.84v-.84h0a2,2,0,0,1-1.75.88,2.37,2.37,0,0,1-2.44-2.38,2.35,2.35,0,0,1,2.38-2.42,2.16,2.16,0,0,1,1.81.9h0v-.78H335v4.64a2.24,2.24,0,0,1-2.51,2.44,2.9,2.9,0,0,1-2.25-.94Zm1.86-1.54a1.8,1.8,0,0,0,0-3.6,1.8,1.8,0,0,0,0,3.6Z" transform="translate(-88.32 -50.29)"/><path class="cls-6" d="M337.13,590.56a6.27,6.27,0,0,1,0,.75h0a1.89,1.89,0,0,1,1.57-.87,1.6,1.6,0,0,1,1.76,1.83v3h-.66v-2.59c0-1-.29-1.61-1.27-1.61-.14,0-1.42.09-1.42,1.8v2.4h-.66v-3.65c0-.25,0-.69-.05-1Z" transform="translate(-88.32 -50.29)"/><path class="cls-6" d="M347.84,592.37v-.12a1.06,1.06,0,0,0-1.2-1.21,2.08,2.08,0,0,0-1.43.55l-.4-.47a2.68,2.68,0,0,1,2-.68,1.57,1.57,0,0,1,1.71,1.66v2.09a7.63,7.63,0,0,0,.08,1h-.64a4.68,4.68,0,0,1-.06-.76h0a1.75,1.75,0,0,1-1.65.88A1.44,1.44,0,0,1,344.6,594c0-1.52,1.79-1.62,2.91-1.62Zm-.34.54c-.67,0-2.18.05-2.18,1,0,.62.57.86,1.1.86a1.37,1.37,0,0,0,1.42-1.51v-.34Z" transform="translate(-88.32 -50.29)"/><path class="cls-6" d="M352.51,591.67a1.09,1.09,0,0,0-1-.63c-.46,0-1,.2-1,.7s.31.6.92.74l.67.16a1.34,1.34,0,0,1,1.14,1.28c0,1-.91,1.44-1.82,1.44a2,2,0,0,1-1.8-.91l.57-.39a1.42,1.42,0,0,0,1.23.7c.54,0,1.1-.24,1.1-.78s-.4-.63-.89-.75l-.64-.15c-.32-.08-1.2-.34-1.2-1.23s.85-1.41,1.73-1.41a1.62,1.62,0,0,1,1.56.84Z" transform="translate(-88.32 -50.29)"/><path class="cls-6" d="M358.81,594.43l1.43-3.87h.8l-2.34,5.9c-.28.72-.66,1.18-1.47,1.18a2.12,2.12,0,0,1-.61-.07l.07-.64a1,1,0,0,0,.5.11c.46,0,.7-.31.9-.84l.34-.9-1.92-4.74h.83Z" transform="translate(-88.32 -50.29)"/><path class="cls-6" d="M364.13,595.36a2.46,2.46,0,1,1,2.49-2.46A2.39,2.39,0,0,1,364.13,595.36Zm0-4.32a1.86,1.86,0,1,0,1.77,1.86A1.73,1.73,0,0,0,364.13,591Z" transform="translate(-88.32 -50.29)"/><path class="cls-6" d="M371.2,595.24a6.27,6.27,0,0,1,0-.75h0a1.89,1.89,0,0,1-1.57.87,1.6,1.6,0,0,1-1.76-1.83v-3h.66v2.59c0,1,.29,1.61,1.27,1.61.14,0,1.42-.09,1.42-1.8v-2.4h.66v3.65c0,.25,0,.69.05,1Z" transform="translate(-88.32 -50.29)"/><path class="cls-6" d="M377,595.24h-.66v-7.56H377Z" transform="translate(-88.32 -50.29)"/><path class="cls-6" d="M379,589.24a.48.48,0,1,1,.48-.48A.49.49,0,0,1,379,589.24Zm.33,6h-.66v-4.68h.66Z" transform="translate(-88.32 -50.29)"/><path class="cls-6" d="M381.62,592.67l2.21-2.11h1l-2.33,2.14,2.58,2.54h-1l-2.43-2.46v2.46H381v-7.56h.66Z" transform="translate(-88.32 -50.29)"/><path class="cls-6" d="M386.24,593.08a1.75,1.75,0,0,0,3.22.87l.51.42a2.44,2.44,0,0,1-2,1,2.46,2.46,0,0,1-.06-4.92,2.19,2.19,0,0,1,2.24,2.34v.3Zm3.18-.54a1.41,1.41,0,0,0-1.52-1.5,1.65,1.65,0,0,0-1.64,1.5Z" transform="translate(-88.32 -50.29)"/><path class="cls-6" d="M392,595.3a.54.54,0,1,1,.54-.54A.54.54,0,0,1,392,595.3Z" transform="translate(-88.32 -50.29)"/><path class="cls-6" d="M298,577.44h-4.5v-.83l2.82-2.87a2.44,2.44,0,0,0,.9-1.6,1.25,1.25,0,0,0-1.37-1.24,1.38,1.38,0,0,0-1.41,1.11l-.76-.08a2,2,0,0,1,2.12-1.69,1.9,1.9,0,0,1,2.14,1.84,3.57,3.57,0,0,1-1.43,2.49l-2.23,2.21H298Z" transform="translate(-88.32 -50.29)"/><circle class="cls-7" cx="335.44" cy="679.3" r="8.46"/><path class="cls-6" d="M443.37,734.06a3.72,3.72,0,1,1,3.69-3.72A3.6,3.6,0,0,1,443.37,734.06Zm0-6.78a3.06,3.06,0,1,0,2.91,3.06A2.89,2.89,0,0,0,443.37,727.28Z" transform="translate(-88.32 -50.29)"/><path class="cls-6" d="M451.64,733.88a6.27,6.27,0,0,1,0-.75h0A1.88,1.88,0,0,1,450,734a1.6,1.6,0,0,1-1.76-1.83v-3h.66v2.59c0,1,.29,1.61,1.27,1.61.13,0,1.41-.09,1.41-1.8v-2.4h.66v3.65c0,.25,0,.69.05,1Z" transform="translate(-88.32 -50.29)"/><path class="cls-6" d="M456.25,729.8H454.9v2.76c0,.7.27.84.68.84a1.43,1.43,0,0,0,.67-.18l0,.61a2.24,2.24,0,0,1-.89.17,1.09,1.09,0,0,1-1.16-1.25v-3h-1v-.6h1v-1.32h.66v1.32h1.35Z" transform="translate(-88.32 -50.29)"/><path class="cls-6" d="M458,733.88h-.66v-7.56H458Z" transform="translate(-88.32 -50.29)"/><path class="cls-6" d="M460,727.88a.48.48,0,1,1,.48-.48A.49.49,0,0,1,460,727.88Zm.33,6h-.66V729.2h.66Z" transform="translate(-88.32 -50.29)"/><path class="cls-6" d="M462.58,729.2a6.27,6.27,0,0,1,0,.75h0a1.88,1.88,0,0,1,1.56-.87,1.6,1.6,0,0,1,1.76,1.83v3h-.66v-2.59c0-1-.29-1.61-1.27-1.61-.14,0-1.41.09-1.41,1.8v2.4H462v-3.65c0-.25,0-.69-.05-1Z" transform="translate(-88.32 -50.29)"/><path class="cls-6" d="M468,731.72a1.75,1.75,0,0,0,1.71,1.68,1.77,1.77,0,0,0,1.5-.81l.51.42a2.44,2.44,0,0,1-2,1,2.46,2.46,0,0,1-.06-4.92,2.19,2.19,0,0,1,2.24,2.34v.3Zm3.17-.54a1.41,1.41,0,0,0-1.52-1.5,1.64,1.64,0,0,0-1.63,1.5Z" transform="translate(-88.32 -50.29)"/><path class="cls-6" d="M478.08,734a2.46,2.46,0,1,1,2.49-2.46A2.39,2.39,0,0,1,478.08,734Zm0-4.32a1.86,1.86,0,1,0,1.77,1.86A1.73,1.73,0,0,0,478.08,729.68Z" transform="translate(-88.32 -50.29)"/><path class="cls-6" d="M481.85,730.66c0-.42,0-.78,0-1.46h.65v.87h0a1.53,1.53,0,0,1,1.49-1,1.77,1.77,0,0,1,.49.06l-.13.65a1.11,1.11,0,0,0-.38,0,1.47,1.47,0,0,0-1.45,1.5v2.64h-.65Z" transform="translate(-88.32 -50.29)"/><path class="cls-6" d="M488,730.66c0-.42,0-.78,0-1.46h.64v.87h0a1.52,1.52,0,0,1,1.49-1,1.77,1.77,0,0,1,.49.06l-.13.65a1.11,1.11,0,0,0-.38,0,1.46,1.46,0,0,0-1.45,1.5v2.64H488Z" transform="translate(-88.32 -50.29)"/><path class="cls-6" d="M494.19,731v-.12a1.06,1.06,0,0,0-1.2-1.21,2.08,2.08,0,0,0-1.43.55l-.39-.47a2.64,2.64,0,0,1,2-.68,1.57,1.57,0,0,1,1.71,1.66v2.09a7.63,7.63,0,0,0,.08,1h-.64a4.68,4.68,0,0,1-.06-.76h0a1.75,1.75,0,0,1-1.65.88,1.43,1.43,0,0,1-1.6-1.37c0-1.52,1.78-1.62,2.9-1.62Zm-.34.54c-.67,0-2.18.05-2.18,1,0,.62.57.86,1.1.86a1.37,1.37,0,0,0,1.42-1.51v-.34Z" transform="translate(-88.32 -50.29)"/><path class="cls-6" d="M498.86,730.31a1.09,1.09,0,0,0-1-.63c-.46,0-1,.2-1,.7s.31.6.92.74l.67.16a1.34,1.34,0,0,1,1.14,1.28c0,1-.91,1.44-1.82,1.44a2,2,0,0,1-1.79-.91l.56-.39a1.42,1.42,0,0,0,1.23.7c.54,0,1.1-.24,1.1-.78s-.4-.63-.89-.75l-.64-.15c-.32-.08-1.19-.34-1.19-1.23s.84-1.41,1.72-1.41a1.62,1.62,0,0,1,1.56.84Z" transform="translate(-88.32 -50.29)"/><path class="cls-6" d="M503.06,729.8h-1.35v2.76c0,.7.27.84.68.84a1.47,1.47,0,0,0,.68-.18l0,.61a2.21,2.21,0,0,1-.89.17,1.09,1.09,0,0,1-1.16-1.25v-3h-1v-.6h1v-1.32h.66v1.32h1.35Z" transform="translate(-88.32 -50.29)"/><path class="cls-6" d="M504.42,731.72a1.75,1.75,0,0,0,3.22.87l.51.42a2.44,2.44,0,0,1-2,1,2.46,2.46,0,0,1-.06-4.92,2.19,2.19,0,0,1,2.24,2.34v.3Zm3.18-.54a1.41,1.41,0,0,0-1.52-1.5,1.65,1.65,0,0,0-1.64,1.5Z" transform="translate(-88.32 -50.29)"/><path class="cls-6" d="M509.59,730.66c0-.42,0-.78,0-1.46h.65v.87h0a1.54,1.54,0,0,1,1.5-1,1.77,1.77,0,0,1,.49.06l-.13.65a1.11,1.11,0,0,0-.38,0,1.46,1.46,0,0,0-1.45,1.5v2.64h-.66Z" transform="translate(-88.32 -50.29)"/><path class="cls-6" d="M513.32,727.88a.48.48,0,1,1,.48-.48A.49.49,0,0,1,513.32,727.88Zm.33,6H513V729.2h.66Z" transform="translate(-88.32 -50.29)"/><path class="cls-6" d="M518.45,729.68l-2.74,3.6h2.84v.6h-3.8v-.48l2.74-3.6h-2.6v-.6h3.56Z" transform="translate(-88.32 -50.29)"/><path class="cls-6" d="M520,731.72a1.75,1.75,0,0,0,3.22.87l.51.42a2.44,2.44,0,0,1-2,1,2.46,2.46,0,0,1-.06-4.92,2.19,2.19,0,0,1,2.24,2.34v.3Zm3.18-.54a1.41,1.41,0,0,0-1.52-1.5,1.65,1.65,0,0,0-1.64,1.5Z" transform="translate(-88.32 -50.29)"/><path class="cls-6" d="M529.58,733.07,531,729.2h.8l-2.34,5.9c-.28.71-.66,1.17-1.47,1.17a2.12,2.12,0,0,1-.61-.07l.07-.63a1.18,1.18,0,0,0,.5.1c.46,0,.7-.31.9-.84l.34-.89-1.92-4.74h.83Z" transform="translate(-88.32 -50.29)"/><path class="cls-6" d="M534.9,734a2.46,2.46,0,1,1,2.49-2.46A2.39,2.39,0,0,1,534.9,734Zm0-4.32a1.86,1.86,0,1,0,1.77,1.86A1.73,1.73,0,0,0,534.9,729.68Z" transform="translate(-88.32 -50.29)"/><path class="cls-6" d="M542,733.88a6.27,6.27,0,0,1,0-.75h0a1.89,1.89,0,0,1-1.57.87,1.6,1.6,0,0,1-1.76-1.83v-3h.66v2.59c0,1,.29,1.61,1.27,1.61.14,0,1.42-.09,1.42-1.8v-2.4h.66v3.65c0,.25,0,.69,0,1Z" transform="translate(-88.32 -50.29)"/><path class="cls-6" d="M544.22,730.66c0-.42,0-.78,0-1.46h.65v.87h0a1.54,1.54,0,0,1,1.5-1,1.77,1.77,0,0,1,.49.06l-.13.65a1.11,1.11,0,0,0-.38,0,1.46,1.46,0,0,0-1.45,1.5v2.64h-.66Z" transform="translate(-88.32 -50.29)"/><path class="cls-6" d="M442.11,747.16H441v4.08h-.66v-4.08h-1v-.6h1v-1.28c0-1.24.62-1.72,1.57-1.72a2.68,2.68,0,0,1,.56.07l-.11.6a2.16,2.16,0,0,0-.51-.07c-.73,0-.85.52-.85,1.2v1.2h1.11Z" transform="translate(-88.32 -50.29)"/><path class="cls-6" d="M445.12,751.36a2.46,2.46,0,1,1,2.49-2.46A2.39,2.39,0,0,1,445.12,751.36Zm0-4.32a1.86,1.86,0,1,0,1.77,1.86A1.73,1.73,0,0,0,445.12,747Z" transform="translate(-88.32 -50.29)"/><path class="cls-6" d="M449.45,746.56a6.27,6.27,0,0,1,0,.75h0a1.88,1.88,0,0,1,1.56-.87,1.6,1.6,0,0,1,1.76,1.83v3h-.66v-2.59c0-1-.29-1.61-1.27-1.61-.14,0-1.41.09-1.41,1.8v2.4h-.66v-3.65c0-.25,0-.69-.05-1Z" transform="translate(-88.32 -50.29)"/><path class="cls-6" d="M456.79,747.16h-1.34v2.76c0,.7.27.84.67.84a1.44,1.44,0,0,0,.68-.18l0,.61a2.16,2.16,0,0,1-.88.17,1.09,1.09,0,0,1-1.16-1.25v-3h-1v-.6h1v-1.32h.66v1.32h1.34Z" transform="translate(-88.32 -50.29)"/><path class="cls-6" d="M460.17,747.67a1.09,1.09,0,0,0-1-.63c-.46,0-1,.2-1,.7s.31.6.92.74l.67.16a1.34,1.34,0,0,1,1.13,1.28c0,1-.91,1.44-1.81,1.44a2,2,0,0,1-1.8-.91l.57-.39a1.42,1.42,0,0,0,1.23.7c.53,0,1.09-.24,1.09-.78s-.4-.63-.88-.75l-.64-.15c-.32-.08-1.2-.34-1.2-1.23s.85-1.41,1.73-1.41a1.61,1.61,0,0,1,1.55.84Z" transform="translate(-88.32 -50.29)"/><path class="cls-6" d="M467.73,748.37v-.12a1.06,1.06,0,0,0-1.2-1.21,2,2,0,0,0-1.42.55l-.4-.47a2.64,2.64,0,0,1,2-.68,1.57,1.57,0,0,1,1.71,1.66v2.09a7.63,7.63,0,0,0,.08,1h-.64a4.68,4.68,0,0,1-.06-.76h0a1.75,1.75,0,0,1-1.65.88,1.44,1.44,0,0,1-1.6-1.37c0-1.52,1.78-1.62,2.9-1.62Zm-.34.54c-.67,0-2.18.05-2.18,1,0,.62.58.86,1.1.86a1.37,1.37,0,0,0,1.42-1.51v-.34Z" transform="translate(-88.32 -50.29)"/><path class="cls-6" d="M470.55,746.56a6.27,6.27,0,0,1,0,.75h0a1.85,1.85,0,0,1,1.56-.87,1.6,1.6,0,0,1,1.76,1.83v3h-.66v-2.59c0-1-.29-1.61-1.27-1.61-.14,0-1.42.09-1.42,1.8v2.4h-.65v-3.65c0-.25,0-.69-.05-1Z" transform="translate(-88.32 -50.29)"/><path class="cls-6" d="M480.15,751.24h-.66v-.78h0a2.24,2.24,0,0,1-1.82.9,2.46,2.46,0,1,1,0-4.92,2.24,2.24,0,0,1,1.82.9h0v-3.66h.66Zm-2.5-.48a1.86,1.86,0,1,0,0-3.72,1.86,1.86,0,0,0,0,3.72Z" transform="translate(-88.32 -50.29)"/><path class="cls-6" d="M487.78,747.66a1.4,1.4,0,0,0-1.17-.62,1.86,1.86,0,0,0,0,3.72,1.4,1.4,0,0,0,1.17-.62l.54.41a2.26,2.26,0,0,1-1.71.81,2.46,2.46,0,1,1,0-4.92,2.26,2.26,0,0,1,1.71.81Z" transform="translate(-88.32 -50.29)"/><path class="cls-6" d="M490,751.24h-.66v-7.56H490Z" transform="translate(-88.32 -50.29)"/><path class="cls-6" d="M492.07,745.24a.48.48,0,1,1,.48-.48A.49.49,0,0,1,492.07,745.24Zm.33,6h-.65v-4.68h.65Z" transform="translate(-88.32 -50.29)"/><path class="cls-6" d="M497.4,747.66a1.4,1.4,0,0,0-1.17-.62,1.86,1.86,0,0,0,0,3.72,1.4,1.4,0,0,0,1.17-.62l.54.41a2.26,2.26,0,0,1-1.71.81,2.46,2.46,0,1,1,0-4.92,2.26,2.26,0,0,1,1.71.81Z" transform="translate(-88.32 -50.29)"/><path class="cls-6" d="M499.47,748.67l2.21-2.11h1l-2.33,2.14,2.58,2.54h-1l-2.43-2.46v2.46h-.66v-7.56h.66Z" transform="translate(-88.32 -50.29)"/><path class="cls-6" d="M506.82,749.76a1.76,1.76,0,0,0,1.49.76,1.31,1.31,0,0,0,1.41-1.18c0-1.63-3.48-.62-3.48-3.38a2.15,2.15,0,0,1,2.39-2,2.45,2.45,0,0,1,2,.81l-.78.71a1.49,1.49,0,0,0-1.26-.62c-1.05,0-1.38.64-1.38,1.08,0,1.79,3.49.72,3.49,3.27a2.24,2.24,0,0,1-2.46,2.19,2.71,2.71,0,0,1-2.25-1Z" transform="translate(-88.32 -50.29)"/><path class="cls-6" d="M512,747.08a2.77,2.77,0,0,1,1.87-.7c1.4,0,2,.76,2,1.58v2.42a7.31,7.31,0,0,0,0,.86h-.8q0-.36,0-.72h0a1.8,1.8,0,0,1-1.66.84,1.47,1.47,0,0,1-1.63-1.42c0-1.22,1.17-1.64,2.6-1.64H515v-.2a1,1,0,0,0-1.13-1,2,2,0,0,0-1.34.54Zm2.53,1.88c-.85,0-1.88.15-1.88.91,0,.54.39.77,1,.77a1.28,1.28,0,0,0,1.35-1.38V749Z" transform="translate(-88.32 -50.29)"/><path class="cls-6" d="M516.56,746.5h1l1.41,3.63,1.36-3.63h1l-1.86,4.74h-1Z" transform="translate(-88.32 -50.29)"/><path class="cls-6" d="M522.81,749.2a1.49,1.49,0,0,0,1.59,1.38,1.63,1.63,0,0,0,1.3-.71l.68.52a2.48,2.48,0,0,1-2.1,1,2.35,2.35,0,0,1-2.43-2.49,2.4,2.4,0,0,1,2.44-2.49,2.26,2.26,0,0,1,2.31,2.5v.32Zm2.83-.72a1.28,1.28,0,0,0-1.37-1.38,1.45,1.45,0,0,0-1.46,1.38Z" transform="translate(-88.32 -50.29)"/><path class="cls-6" d="M528.4,751.3a.54.54,0,1,1,.53-.54A.54.54,0,0,1,528.4,751.3Z" transform="translate(-88.32 -50.29)"/><path class="cls-6" d="M425.57,727h-2.9l0,2.13a2.58,2.58,0,0,1,.95-.17,2.17,2.17,0,0,1,2.24,2.27,2.26,2.26,0,0,1-2.38,2.31,2.18,2.18,0,0,1-2-1.26l.71-.31a1.53,1.53,0,0,0,1.39.91,1.58,1.58,0,0,0,1.6-1.58,1.64,1.64,0,0,0-1.74-1.68,3.16,3.16,0,0,0-1.47.39l.07-3.67h3.61Z" transform="translate(-88.32 -50.29)"/><circle class="cls-7" cx="85.44" cy="679.3" r="8.46"/><path class="cls-6" d="M190.89,733.88h-.72V726.8h.72Z" transform="translate(-88.32 -50.29)"/><path class="cls-6" d="M194.75,729.8h-1.11v4.08H193V729.8h-1v-.6h1v-1.28c0-1.24.62-1.72,1.57-1.72a2.78,2.78,0,0,1,.57.07l-.12.6a2.16,2.16,0,0,0-.51-.07c-.73,0-.85.52-.85,1.2v1.2h1.11Z" transform="translate(-88.32 -50.29)"/><path class="cls-6" d="M200.05,733.07l1.42-3.87h.8l-2.33,5.9c-.28.71-.66,1.17-1.47,1.17a2.12,2.12,0,0,1-.61-.07l.07-.63a1.18,1.18,0,0,0,.5.1c.46,0,.7-.31.9-.84l.34-.89-1.92-4.74h.83Z" transform="translate(-88.32 -50.29)"/><path class="cls-6" d="M205.37,734a2.46,2.46,0,1,1,2.48-2.46A2.39,2.39,0,0,1,205.37,734Zm0-4.32a1.86,1.86,0,1,0,1.76,1.86A1.73,1.73,0,0,0,205.37,729.68Z" transform="translate(-88.32 -50.29)"/><path class="cls-6" d="M212.43,733.88a6.27,6.27,0,0,1,0-.75h0a1.89,1.89,0,0,1-1.57.87,1.6,1.6,0,0,1-1.75-1.83v-3h.66v2.59c0,1,.29,1.61,1.26,1.61.14,0,1.42-.09,1.42-1.8v-2.4h.66v3.65c0,.25,0,.69.05,1Z" transform="translate(-88.32 -50.29)"/><path class="cls-6" d="M214.69,730.66c0-.42,0-.78,0-1.46h.65v.87h0a1.54,1.54,0,0,1,1.49-1,1.77,1.77,0,0,1,.49.06l-.13.65a1.11,1.11,0,0,0-.38,0,1.46,1.46,0,0,0-1.44,1.5v2.64h-.66Z" transform="translate(-88.32 -50.29)"/><path class="cls-6" d="M225.38,733.88h-.66v-.78h0a2.24,2.24,0,0,1-1.82.9,2.46,2.46,0,1,1,0-4.92,2.24,2.24,0,0,1,1.82.9h0v-3.66h.66Zm-2.5-.48a1.86,1.86,0,1,0,0-3.72,1.86,1.86,0,0,0,0,3.72Z" transform="translate(-88.32 -50.29)"/><path class="cls-6" d="M227.29,731.72A1.75,1.75,0,0,0,229,733.4a1.77,1.77,0,0,0,1.5-.81l.51.42a2.44,2.44,0,0,1-2,1,2.46,2.46,0,0,1-.06-4.92,2.19,2.19,0,0,1,2.24,2.34v.3Zm3.17-.54a1.41,1.41,0,0,0-1.52-1.5,1.64,1.64,0,0,0-1.63,1.5Z" transform="translate(-88.32 -50.29)"/><path class="cls-6" d="M234.86,730.31a1.09,1.09,0,0,0-1-.63c-.45,0-1,.2-1,.7s.31.6.91.74l.67.16a1.34,1.34,0,0,1,1.14,1.28c0,1-.91,1.44-1.82,1.44a2,2,0,0,1-1.79-.91l.57-.39a1.42,1.42,0,0,0,1.22.7c.54,0,1.1-.24,1.1-.78s-.4-.63-.89-.75l-.63-.15c-.32-.08-1.2-.34-1.2-1.23s.85-1.41,1.73-1.41a1.61,1.61,0,0,1,1.55.84Z" transform="translate(-88.32 -50.29)"/><path class="cls-6" d="M237.12,727.88a.48.48,0,1,1,.48-.48A.48.48,0,0,1,237.12,727.88Zm.34,6h-.66V729.2h.66Z" transform="translate(-88.32 -50.29)"/><path class="cls-6" d="M239.41,734.82a2.21,2.21,0,0,0,1.78.85,1.64,1.64,0,0,0,1.82-1.83V733h0a2,2,0,0,1-1.75.88,2.37,2.37,0,0,1-2.43-2.38,2.34,2.34,0,0,1,2.37-2.42,2.16,2.16,0,0,1,1.81.9h0v-.78h.66v4.64a2.23,2.23,0,0,1-2.51,2.43,2.87,2.87,0,0,1-2.24-.94Zm1.85-1.54a1.8,1.8,0,0,0,0-3.6,1.8,1.8,0,0,0,0,3.6Z" transform="translate(-88.32 -50.29)"/><path class="cls-6" d="M245.78,729.2a6.27,6.27,0,0,1,0,.75h0a1.89,1.89,0,0,1,1.57-.87,1.6,1.6,0,0,1,1.76,1.83v3h-.66v-2.59c0-1-.29-1.61-1.27-1.61-.14,0-1.42.09-1.42,1.8v2.4h-.65v-3.65c0-.25,0-.69-.06-1Z" transform="translate(-88.32 -50.29)"/><path class="cls-6" d="M253.5,726.32h.65V730h0a1.89,1.89,0,0,1,1.57-.87,1.6,1.6,0,0,1,1.76,1.83v3h-.66v-2.59c0-1-.29-1.61-1.27-1.61-.14,0-1.42.09-1.42,1.8v2.4h-.65Z" transform="translate(-88.32 -50.29)"/><path class="cls-6" d="M262.05,731v-.12a1.06,1.06,0,0,0-1.2-1.21,2.08,2.08,0,0,0-1.43.55l-.4-.47a2.68,2.68,0,0,1,2-.68,1.57,1.57,0,0,1,1.71,1.66v2.09a7.63,7.63,0,0,0,.08,1h-.64a4.68,4.68,0,0,1-.06-.76h0a1.75,1.75,0,0,1-1.65.88,1.44,1.44,0,0,1-1.61-1.37c0-1.52,1.79-1.62,2.91-1.62Zm-.34.54c-.67,0-2.18.05-2.18,1,0,.62.57.86,1.1.86a1.37,1.37,0,0,0,1.42-1.51v-.34Z" transform="translate(-88.32 -50.29)"/><path class="cls-6" d="M266.72,730.31a1.09,1.09,0,0,0-1-.63c-.46,0-1,.2-1,.7s.31.6.92.74l.67.16a1.34,1.34,0,0,1,1.14,1.28c0,1-.91,1.44-1.82,1.44a2,2,0,0,1-1.8-.91l.57-.39a1.42,1.42,0,0,0,1.23.7c.54,0,1.1-.24,1.1-.78s-.4-.63-.89-.75l-.64-.15c-.32-.08-1.2-.34-1.2-1.23s.85-1.41,1.73-1.41a1.62,1.62,0,0,1,1.56.84Z" transform="translate(-88.32 -50.29)"/><path class="cls-6" d="M274.28,731v-.12a1.06,1.06,0,0,0-1.2-1.21,2.08,2.08,0,0,0-1.43.55l-.4-.47a2.68,2.68,0,0,1,2-.68,1.57,1.57,0,0,1,1.71,1.66v2.09a7.63,7.63,0,0,0,.08,1h-.64a4.68,4.68,0,0,1-.06-.76h0a1.75,1.75,0,0,1-1.65.88,1.44,1.44,0,0,1-1.61-1.37c0-1.52,1.79-1.62,2.91-1.62Zm-.34.54c-.67,0-2.18.05-2.18,1,0,.62.57.86,1.1.86a1.37,1.37,0,0,0,1.42-1.51v-.34Z" transform="translate(-88.32 -50.29)"/><path class="cls-6" d="M279.25,726.32h.66V730h0a2.24,2.24,0,0,1,1.82-.9,2.46,2.46,0,1,1,0,4.92,2.24,2.24,0,0,1-1.82-.9h0v.78h-.66Zm2.5,3.36a1.86,1.86,0,1,0,0,3.72,1.86,1.86,0,0,0,0-3.72Z" transform="translate(-88.32 -50.29)"/><path class="cls-6" d="M286.17,733.88h-.66v-7.56h.66Z" transform="translate(-88.32 -50.29)"/><path class="cls-6" d="M288.22,731.72a1.75,1.75,0,0,0,3.22.87l.51.42a2.44,2.44,0,0,1-2,1,2.46,2.46,0,0,1-.06-4.92,2.19,2.19,0,0,1,2.24,2.34v.3Zm3.18-.54a1.41,1.41,0,0,0-1.52-1.5,1.65,1.65,0,0,0-1.64,1.5Z" transform="translate(-88.32 -50.29)"/><path class="cls-6" d="M293.78,731.72a1.75,1.75,0,0,0,3.22.87l.51.42a2.44,2.44,0,0,1-2,1,2.46,2.46,0,0,1-.06-4.92,2.19,2.19,0,0,1,2.24,2.34v.3Zm3.18-.54a1.41,1.41,0,0,0-1.52-1.5,1.65,1.65,0,0,0-1.64,1.5Z" transform="translate(-88.32 -50.29)"/><path class="cls-6" d="M303.55,733.88h-.66v-.78h0a2.24,2.24,0,0,1-1.82.9,2.46,2.46,0,1,1,0-4.92,2.24,2.24,0,0,1,1.82.9h0v-3.66h.66Zm-2.5-.48a1.86,1.86,0,1,0,0-3.72,1.86,1.86,0,0,0,0,3.72Z" transform="translate(-88.32 -50.29)"/><path class="cls-6" d="M305.59,735.28h-.67l.67-2.35h.81Z" transform="translate(-88.32 -50.29)"/><path class="cls-6" d="M190.41,745.24a.48.48,0,1,1,.48-.48A.49.49,0,0,1,190.41,745.24Zm.33,6h-.66v-4.68h.66Z" transform="translate(-88.32 -50.29)"/><path class="cls-6" d="M194.75,747.16H193.4v2.76c0,.7.27.84.68.84a1.47,1.47,0,0,0,.68-.18l0,.61a2.21,2.21,0,0,1-.89.17,1.09,1.09,0,0,1-1.16-1.25v-3h-1v-.6h1v-1.32h.66v1.32h1.35Z" transform="translate(-88.32 -50.29)"/><path class="cls-6" d="M200.9,747.67a1.07,1.07,0,0,0-1-.63c-.46,0-1,.2-1,.7s.31.6.92.74l.67.16a1.34,1.34,0,0,1,1.13,1.28c0,1-.91,1.44-1.81,1.44a2,2,0,0,1-1.8-.91l.57-.39a1.42,1.42,0,0,0,1.23.7c.54,0,1.09-.24,1.09-.78s-.39-.63-.88-.75l-.64-.15c-.32-.08-1.2-.34-1.2-1.23s.85-1.41,1.73-1.41a1.61,1.61,0,0,1,1.55.84Z" transform="translate(-88.32 -50.29)"/><path class="cls-6" d="M202.69,743.68h.66v3.63h0a1.87,1.87,0,0,1,1.56-.87,1.6,1.6,0,0,1,1.76,1.83v3H206v-2.59c0-1-.29-1.61-1.27-1.61-.14,0-1.41.09-1.41,1.8v2.4h-.66Z" transform="translate(-88.32 -50.29)"/><path class="cls-6" d="M210.48,751.36A2.46,2.46,0,1,1,213,748.9,2.39,2.39,0,0,1,210.48,751.36Zm0-4.32a1.86,1.86,0,1,0,1.77,1.86A1.73,1.73,0,0,0,210.48,747Z" transform="translate(-88.32 -50.29)"/><path class="cls-6" d="M217.55,751.24a6.27,6.27,0,0,1,0-.75h0a1.89,1.89,0,0,1-1.57.87,1.6,1.6,0,0,1-1.75-1.83v-3h.66v2.59c0,1,.28,1.61,1.26,1.61.14,0,1.42-.09,1.42-1.8v-2.4h.66v3.65c0,.25,0,.69,0,1Z" transform="translate(-88.32 -50.29)"/><path class="cls-6" d="M220.55,751.24h-.66v-7.56h.66Z" transform="translate(-88.32 -50.29)"/><path class="cls-6" d="M226.8,751.24h-.66v-.78h0a2.24,2.24,0,0,1-1.82.9,2.46,2.46,0,1,1,0-4.92,2.24,2.24,0,0,1,1.82.9h0v-3.66h.66Zm-2.5-.48a1.86,1.86,0,1,0,0-3.72,1.86,1.86,0,0,0,0,3.72Z" transform="translate(-88.32 -50.29)"/><path class="cls-6" d="M231.48,749.08a1.75,1.75,0,0,0,3.22.87l.51.42a2.44,2.44,0,0,1-2,1,2.46,2.46,0,0,1-.06-4.92,2.19,2.19,0,0,1,2.24,2.34v.3Zm3.18-.54a1.41,1.41,0,0,0-1.52-1.5,1.65,1.65,0,0,0-1.64,1.5Z" transform="translate(-88.32 -50.29)"/><path class="cls-6" d="M237.79,748.74l-1.69-2.18h.9l1.29,1.75,1.24-1.75h.82l-1.63,2.18,2,2.5h-.9l-1.57-2-1.5,2h-.84Z" transform="translate(-88.32 -50.29)"/><path class="cls-6" d="M243.82,747.16h-1.35v2.76c0,.7.27.84.68.84a1.47,1.47,0,0,0,.68-.18l0,.61a2.21,2.21,0,0,1-.89.17,1.09,1.09,0,0,1-1.16-1.25v-3h-1v-.6h1v-1.32h.66v1.32h1.35Z" transform="translate(-88.32 -50.29)"/><path class="cls-6" d="M245.18,749.08a1.75,1.75,0,0,0,3.22.87l.51.42a2.44,2.44,0,0,1-2,1,2.46,2.46,0,0,1-.06-4.92,2.19,2.19,0,0,1,2.24,2.34v.3Zm3.18-.54a1.41,1.41,0,0,0-1.52-1.5,1.65,1.65,0,0,0-1.64,1.5Z" transform="translate(-88.32 -50.29)"/><path class="cls-6" d="M250.91,746.56a6.27,6.27,0,0,1,0,.75h0a1.89,1.89,0,0,1,1.57-.87,1.6,1.6,0,0,1,1.76,1.83v3h-.66v-2.59c0-1-.29-1.61-1.27-1.61-.14,0-1.42.09-1.42,1.8v2.4h-.65v-3.65c0-.25,0-.69-.06-1Z" transform="translate(-88.32 -50.29)"/><path class="cls-6" d="M260.51,751.24h-.66v-.78h0a2.24,2.24,0,0,1-1.82.9,2.46,2.46,0,1,1,0-4.92,2.24,2.24,0,0,1,1.82.9h0v-3.66h.66Zm-2.5-.48a1.86,1.86,0,1,0,0-3.72,1.86,1.86,0,0,0,0,3.72Z" transform="translate(-88.32 -50.29)"/><path class="cls-6" d="M267.49,751.24h-.72v-6.18l-1.27,1.12-.45-.54,1.8-1.48h.64Z" transform="translate(-88.32 -50.29)"/><path class="cls-6" d="M270.21,751.42l-.59-.19,3-7.25.57.2Z" transform="translate(-88.32 -50.29)"/><path class="cls-6" d="M275.13,747.47a1.66,1.66,0,0,1-1.06-1.58,2,2,0,0,1,4,0,1.66,1.66,0,0,1-1.06,1.58v0a1.83,1.83,0,0,1,1.32,1.86,2.25,2.25,0,0,1-4.48,0,1.83,1.83,0,0,1,1.32-1.86Zm.92.33a1.45,1.45,0,1,0,1.52,1.45A1.42,1.42,0,0,0,276.05,747.8Zm0-3.1a1.25,1.25,0,1,0,1.26,1.25A1.22,1.22,0,0,0,276.05,744.7Z" transform="translate(-88.32 -50.29)"/><path class="cls-6" d="M280.45,746.51h-.67l.67-2.35h.81Zm1.81,0h-.67l.67-2.35h.81Z" transform="translate(-88.32 -50.29)"/><path class="cls-6" d="M287.52,746.56h.66v.78h0a2.24,2.24,0,0,1,1.82-.9,2.46,2.46,0,1,1,0,4.92,2.24,2.24,0,0,1-1.82-.9h0v3.66h-.66Zm2.5.48a1.86,1.86,0,1,0,0,3.72,1.86,1.86,0,0,0,0-3.72Z" transform="translate(-88.32 -50.29)"/><path class="cls-6" d="M296.63,748.37v-.12a1.06,1.06,0,0,0-1.2-1.21,2.08,2.08,0,0,0-1.43.55l-.4-.47a2.68,2.68,0,0,1,2-.68,1.57,1.57,0,0,1,1.71,1.66v2.09a7.63,7.63,0,0,0,.08,1h-.64a4.68,4.68,0,0,1-.06-.76h0a1.75,1.75,0,0,1-1.65.88,1.44,1.44,0,0,1-1.61-1.37c0-1.52,1.79-1.62,2.91-1.62Zm-.34.54c-.67,0-2.18.05-2.18,1,0,.62.57.86,1.1.86a1.37,1.37,0,0,0,1.42-1.51v-.34Z" transform="translate(-88.32 -50.29)"/><path class="cls-6" d="M301.3,747.67a1.09,1.09,0,0,0-1-.63c-.46,0-1,.2-1,.7s.31.6.92.74l.67.16a1.34,1.34,0,0,1,1.14,1.28c0,1-.91,1.44-1.82,1.44a2,2,0,0,1-1.8-.91l.57-.39a1.42,1.42,0,0,0,1.23.7c.54,0,1.1-.24,1.1-.78s-.4-.63-.89-.75l-.64-.15c-.32-.08-1.2-.34-1.2-1.23s.85-1.41,1.73-1.41a1.62,1.62,0,0,1,1.56.84Z" transform="translate(-88.32 -50.29)"/><path class="cls-6" d="M305.5,747.16h-1.35v2.76c0,.7.27.84.68.84a1.47,1.47,0,0,0,.68-.18l0,.61a2.21,2.21,0,0,1-.89.17,1.09,1.09,0,0,1-1.16-1.25v-3h-1v-.6h1v-1.32h.66v1.32h1.35Z" transform="translate(-88.32 -50.29)"/><path class="cls-6" d="M192.35,764.53H191v2.75c0,.7.27.84.68.84a1.47,1.47,0,0,0,.68-.18l0,.61a2.21,2.21,0,0,1-.89.17,1.09,1.09,0,0,1-1.16-1.25v-2.94h-1v-.6h1v-1.32H191v1.32h1.35Z" transform="translate(-88.32 -50.29)"/><path class="cls-6" d="M193.25,761.05h.66v3.63h0a1.89,1.89,0,0,1,1.57-.87,1.6,1.6,0,0,1,1.75,1.82v3h-.66V766c0-1-.29-1.6-1.26-1.6-.14,0-1.42.09-1.42,1.79v2.4h-.66Z" transform="translate(-88.32 -50.29)"/><path class="cls-6" d="M199.27,766.44a1.74,1.74,0,0,0,3.21.87l.51.42a2.44,2.44,0,0,1-2,1,2.46,2.46,0,0,1-.06-4.91,2.18,2.18,0,0,1,2.23,2.33v.3Zm3.17-.53a1.4,1.4,0,0,0-1.51-1.5,1.65,1.65,0,0,0-1.64,1.5Z" transform="translate(-88.32 -50.29)"/><path class="cls-6" d="M210.55,765a1.4,1.4,0,0,0-1.16-.62,1.86,1.86,0,0,0,0,3.71,1.4,1.4,0,0,0,1.16-.62l.54.41a2.26,2.26,0,0,1-1.7.81,2.46,2.46,0,1,1,0-4.91,2.28,2.28,0,0,1,1.7.8Z" transform="translate(-88.32 -50.29)"/><path class="cls-6" d="M215.34,768.6a6.27,6.27,0,0,1,0-.75h0a1.88,1.88,0,0,1-1.56.87,1.6,1.6,0,0,1-1.76-1.83v-3h.66v2.58c0,1,.29,1.61,1.27,1.61.14,0,1.41-.09,1.41-1.8v-2.39H216v3.64c0,.25,0,.69.05,1Z" transform="translate(-88.32 -50.29)"/><path class="cls-6" d="M219.94,764.53H218.6v2.75c0,.7.27.84.68.84a1.5,1.5,0,0,0,.68-.18l0,.61a2.12,2.12,0,0,1-.88.17,1.09,1.09,0,0,1-1.16-1.25v-2.94h-1v-.6h1v-1.32h.66v1.32h1.34Z" transform="translate(-88.32 -50.29)"/><path class="cls-6" d="M221.66,768.6H221v-7.55h.66Z" transform="translate(-88.32 -50.29)"/><path class="cls-6" d="M223.73,762.61a.48.48,0,1,1,.48-.48A.49.49,0,0,1,223.73,762.61Zm.33,6h-.66v-4.67h.66Z" transform="translate(-88.32 -50.29)"/><path class="cls-6" d="M226.28,763.93a6.27,6.27,0,0,1,0,.75h0a1.87,1.87,0,0,1,1.56-.87,1.6,1.6,0,0,1,1.76,1.82v3H229V766c0-1-.29-1.6-1.27-1.6-.14,0-1.41.09-1.41,1.79v2.4h-.66V765c0-.24,0-.68-.05-1Z" transform="translate(-88.32 -50.29)"/><path class="cls-6" d="M231.67,766.44a1.74,1.74,0,0,0,3.21.87l.51.42a2.44,2.44,0,0,1-2,1,2.46,2.46,0,0,1-.06-4.91,2.19,2.19,0,0,1,2.24,2.33v.3Zm3.17-.53a1.41,1.41,0,0,0-1.52-1.5,1.64,1.64,0,0,0-1.63,1.5Z" transform="translate(-88.32 -50.29)"/><path class="cls-6" d="M237.44,768.66a.54.54,0,1,1,.54-.54A.54.54,0,0,1,237.44,768.66Z" transform="translate(-88.32 -50.29)"/><path class="cls-6" d="M175.08,731.1h1v.66h-1v1.68h-.72v-1.68H171.3v-.82l2.86-4.58h.92Zm-.72-4h0l-2.44,4h2.46Z" transform="translate(-88.32 -50.29)"/><circle class="cls-7" cx="405.11" cy="523.63" r="8.46"/><path class="cls-6" d="M510.55,578.21h-.72v-7.08h.72Z" transform="translate(-88.32 -50.29)"/><path class="cls-6" d="M512.86,573.53a6.27,6.27,0,0,1,0,.75h0a1.89,1.89,0,0,1,1.57-.87,1.6,1.6,0,0,1,1.76,1.83v3h-.66v-2.59c0-1-.29-1.61-1.27-1.61-.14,0-1.42.09-1.42,1.8v2.4h-.66v-3.65c0-.25,0-.69-.05-1Z" transform="translate(-88.32 -50.29)"/><path class="cls-6" d="M522.46,578.21h-.66v-.78h0a2.24,2.24,0,0,1-1.82.9,2.46,2.46,0,1,1,0-4.92,2.24,2.24,0,0,1,1.82.9h0v-3.66h.66Zm-2.5-.48a1.86,1.86,0,1,0,0-3.72,1.86,1.86,0,0,0,0,3.72Z" transform="translate(-88.32 -50.29)"/><path class="cls-6" d="M524.38,572.21a.48.48,0,1,1,.48-.48A.49.49,0,0,1,524.38,572.21Zm.33,6h-.66v-4.68h.66Z" transform="translate(-88.32 -50.29)"/><path class="cls-6" d="M529.71,574.63a1.4,1.4,0,0,0-1.17-.62,1.86,1.86,0,0,0,0,3.72,1.4,1.4,0,0,0,1.17-.62l.54.41a2.26,2.26,0,0,1-1.71.81,2.46,2.46,0,1,1,0-4.92,2.26,2.26,0,0,1,1.71.81Z" transform="translate(-88.32 -50.29)"/><path class="cls-6" d="M534.12,575.34v-.12a1.06,1.06,0,0,0-1.2-1.21,2.08,2.08,0,0,0-1.43.55l-.4-.47a2.68,2.68,0,0,1,2-.68,1.57,1.57,0,0,1,1.71,1.66v2.09a7.63,7.63,0,0,0,.08,1.05h-.64a4.68,4.68,0,0,1-.06-.76h0a1.75,1.75,0,0,1-1.65.88,1.44,1.44,0,0,1-1.61-1.37c0-1.52,1.79-1.62,2.91-1.62Zm-.34.54c-.67,0-2.18,0-2.18,1,0,.62.57.86,1.1.86a1.37,1.37,0,0,0,1.42-1.51v-.34Z" transform="translate(-88.32 -50.29)"/><path class="cls-6" d="M538.73,574.13h-1.35v2.76c0,.7.27.84.68.84a1.47,1.47,0,0,0,.68-.18l0,.61a2.21,2.21,0,0,1-.89.17,1.09,1.09,0,0,1-1.16-1.25v-3h-1v-.6h1v-1.32h.66v1.32h1.35Z" transform="translate(-88.32 -50.29)"/><path class="cls-6" d="M540.09,576.05a1.75,1.75,0,0,0,3.22.87l.51.42a2.44,2.44,0,0,1-2,1,2.46,2.46,0,0,1-.06-4.92,2.19,2.19,0,0,1,2.24,2.34v.3Zm3.18-.54a1.41,1.41,0,0,0-1.52-1.5,1.65,1.65,0,0,0-1.64,1.5Z" transform="translate(-88.32 -50.29)"/><path class="cls-6" d="M549.71,577.4l1.43-3.87h.8l-2.34,5.9c-.28.72-.66,1.18-1.47,1.18a2.12,2.12,0,0,1-.61-.07l.07-.64a1,1,0,0,0,.5.11c.46,0,.7-.31.9-.84l.34-.9-1.92-4.74h.83Z" transform="translate(-88.32 -50.29)"/><path class="cls-6" d="M555,578.33a2.46,2.46,0,1,1,2.49-2.46A2.39,2.39,0,0,1,555,578.33Zm0-4.32a1.86,1.86,0,1,0,1.77,1.86A1.73,1.73,0,0,0,555,574Z" transform="translate(-88.32 -50.29)"/><path class="cls-6" d="M562.1,578.21a6.27,6.27,0,0,1,0-.75h0a1.89,1.89,0,0,1-1.57.87,1.6,1.6,0,0,1-1.76-1.83v-3h.66v2.59c0,1,.29,1.61,1.27,1.61.14,0,1.42-.09,1.42-1.8v-2.4h.66v3.65c0,.25,0,.69,0,1Z" transform="translate(-88.32 -50.29)"/><path class="cls-6" d="M564.35,575c0-.42,0-.78,0-1.46H565v.87h0a1.54,1.54,0,0,1,1.5-1,1.77,1.77,0,0,1,.49.06l-.13.65a1.11,1.11,0,0,0-.38,0,1.46,1.46,0,0,0-1.45,1.5v2.64h-.66Z" transform="translate(-88.32 -50.29)"/><path class="cls-6" d="M573.79,574.63a1.4,1.4,0,0,0-1.17-.62,1.86,1.86,0,0,0,0,3.72,1.4,1.4,0,0,0,1.17-.62l.54.41a2.26,2.26,0,0,1-1.71.81,2.46,2.46,0,1,1,0-4.92,2.26,2.26,0,0,1,1.71.81Z" transform="translate(-88.32 -50.29)"/><path class="cls-6" d="M578.58,578.21a6.27,6.27,0,0,1,0-.75h0a1.89,1.89,0,0,1-1.57.87,1.6,1.6,0,0,1-1.76-1.83v-3h.66v2.59c0,1,.29,1.61,1.27,1.61.14,0,1.42-.09,1.42-1.8v-2.4h.66v3.65c0,.25,0,.69,0,1Z" transform="translate(-88.32 -50.29)"/><path class="cls-6" d="M583.18,574.13h-1.35v2.76c0,.7.27.84.68.84a1.47,1.47,0,0,0,.68-.18l0,.61a2.21,2.21,0,0,1-.89.17,1.09,1.09,0,0,1-1.16-1.25v-3h-1v-.6h1v-1.32h.66v1.32h1.35Z" transform="translate(-88.32 -50.29)"/><path class="cls-6" d="M587.67,578.21H587v-7.56h.66Z" transform="translate(-88.32 -50.29)"/><path class="cls-6" d="M589.74,572.21a.48.48,0,1,1,.48-.48A.49.49,0,0,1,589.74,572.21Zm.33,6h-.66v-4.68h.66Z" transform="translate(-88.32 -50.29)"/><path class="cls-6" d="M592.29,573.53a6.27,6.27,0,0,1,0,.75h0a1.89,1.89,0,0,1,1.57-.87,1.6,1.6,0,0,1,1.76,1.83v3H595v-2.59c0-1-.29-1.61-1.27-1.61-.14,0-1.42.09-1.42,1.8v2.4h-.66v-3.65c0-.25,0-.69,0-1Z" transform="translate(-88.32 -50.29)"/><path class="cls-6" d="M597.68,576.05a1.75,1.75,0,0,0,3.22.87l.51.42a2.44,2.44,0,0,1-2,1,2.46,2.46,0,0,1-.06-4.92,2.19,2.19,0,0,1,2.24,2.34v.3Zm3.18-.54a1.41,1.41,0,0,0-1.52-1.5,1.65,1.65,0,0,0-1.64,1.5Z" transform="translate(-88.32 -50.29)"/><path class="cls-6" d="M605.76,573.53l1.08,3.8h0l1.25-3.8h.68l1.25,3.8h0l1.08-3.8h.78l-1.48,4.68h-.74l-1.24-3.84h0l-1.24,3.84h-.74L605,573.53Z" transform="translate(-88.32 -50.29)"/><path class="cls-6" d="M613.26,572.21a.48.48,0,1,1,.48-.48A.49.49,0,0,1,613.26,572.21Zm.33,6h-.66v-4.68h.66Z" transform="translate(-88.32 -50.29)"/><path class="cls-6" d="M617.6,574.13h-1.35v2.76c0,.7.27.84.68.84a1.47,1.47,0,0,0,.68-.18l0,.61a2.21,2.21,0,0,1-.89.17,1.09,1.09,0,0,1-1.16-1.25v-3h-1v-.6h1v-1.32h.66v1.32h1.35Z" transform="translate(-88.32 -50.29)"/><path class="cls-6" d="M618.5,570.65h.66v3.63h0a1.89,1.89,0,0,1,1.57-.87,1.6,1.6,0,0,1,1.76,1.83v3h-.66v-2.59c0-1-.29-1.61-1.27-1.61-.14,0-1.42.09-1.42,1.8v2.4h-.66Z" transform="translate(-88.32 -50.29)"/><path class="cls-6" d="M629.84,575.34v-.12a1.06,1.06,0,0,0-1.2-1.21,2.08,2.08,0,0,0-1.43.55l-.4-.47a2.68,2.68,0,0,1,2-.68,1.57,1.57,0,0,1,1.71,1.66v2.09a7.63,7.63,0,0,0,.08,1.05h-.64a4.68,4.68,0,0,1-.06-.76h0a1.75,1.75,0,0,1-1.65.88A1.44,1.44,0,0,1,626.6,577c0-1.52,1.79-1.62,2.91-1.62Zm-.34.54c-.67,0-2.18,0-2.18,1,0,.62.57.86,1.1.86a1.37,1.37,0,0,0,1.42-1.51v-.34Z" transform="translate(-88.32 -50.29)"/><path class="cls-6" d="M512.07,592a1.09,1.09,0,0,0-1-.63c-.46,0-1,.2-1,.7s.31.6.92.74l.67.16a1.34,1.34,0,0,1,1.14,1.28c0,1-.91,1.44-1.82,1.44a2,2,0,0,1-1.8-.91l.57-.39a1.42,1.42,0,0,0,1.23.7c.54,0,1.1-.24,1.1-.78s-.4-.63-.89-.75l-.64-.15c-.32-.08-1.2-.34-1.2-1.23s.85-1.4,1.73-1.4a1.61,1.61,0,0,1,1.56.83Z" transform="translate(-88.32 -50.29)"/><path class="cls-6" d="M516.27,591.49h-1.35v2.76c0,.7.27.84.68.84a1.47,1.47,0,0,0,.68-.18l0,.61a2.21,2.21,0,0,1-.89.17,1.09,1.09,0,0,1-1.16-1.25v-3h-1v-.6h1v-1.32h.66v1.32h1.35Z" transform="translate(-88.32 -50.29)"/><path class="cls-6" d="M517.24,592.35c0-.42,0-.78,0-1.46h.65v.87h0a1.53,1.53,0,0,1,1.5-1,1.8,1.8,0,0,1,.49.05l-.13.65a1.11,1.11,0,0,0-.38-.05,1.46,1.46,0,0,0-1.45,1.5v2.64h-.66Z" transform="translate(-88.32 -50.29)"/><path class="cls-6" d="M522.73,595.69a2.46,2.46,0,1,1,2.49-2.46A2.39,2.39,0,0,1,522.73,595.69Zm0-4.32a1.86,1.86,0,1,0,1.77,1.86A1.73,1.73,0,0,0,522.73,591.37Z" transform="translate(-88.32 -50.29)"/><path class="cls-6" d="M527.08,593l2.21-2.11h1L528,593l2.58,2.54h-1l-2.43-2.46v2.46h-.66V588h.66Z" transform="translate(-88.32 -50.29)"/><path class="cls-6" d="M531.7,593.41a1.75,1.75,0,0,0,3.22.87l.51.42a2.44,2.44,0,0,1-2,1,2.46,2.46,0,0,1-.06-4.91,2.18,2.18,0,0,1,2.24,2.33v.3Zm3.18-.54a1.41,1.41,0,0,0-1.52-1.5,1.65,1.65,0,0,0-1.64,1.5Z" transform="translate(-88.32 -50.29)"/><path class="cls-6" d="M541.82,595.69a2.46,2.46,0,1,1,2.49-2.46A2.39,2.39,0,0,1,541.82,595.69Zm0-4.32a1.86,1.86,0,1,0,1.77,1.86A1.73,1.73,0,0,0,541.82,591.37Z" transform="translate(-88.32 -50.29)"/><path class="cls-6" d="M546.14,590.89a6.27,6.27,0,0,1,0,.75h0a1.88,1.88,0,0,1,1.57-.86,1.6,1.6,0,0,1,1.76,1.82v3h-.66V593c0-1-.29-1.61-1.27-1.61-.14,0-1.42.09-1.42,1.8v2.4h-.66v-3.65c0-.25,0-.69,0-1Z" transform="translate(-88.32 -50.29)"/><path class="cls-6" d="M556.27,591.49h-1.35v2.76c0,.7.27.84.68.84a1.47,1.47,0,0,0,.68-.18l0,.61a2.21,2.21,0,0,1-.89.17,1.09,1.09,0,0,1-1.16-1.25v-3h-1v-.6h1v-1.32h.66v1.32h1.35Z" transform="translate(-88.32 -50.29)"/><path class="cls-6" d="M557.17,588h.66v3.62h0a1.88,1.88,0,0,1,1.57-.86,1.6,1.6,0,0,1,1.76,1.82v3h-.66V593c0-1-.29-1.61-1.27-1.61-.14,0-1.42.09-1.42,1.8v2.4h-.66Z" transform="translate(-88.32 -50.29)"/><path class="cls-6" d="M563.19,593.41a1.75,1.75,0,0,0,3.22.87l.51.42a2.44,2.44,0,0,1-2,1,2.46,2.46,0,0,1-.06-4.91,2.18,2.18,0,0,1,2.24,2.33v.3Zm3.18-.54a1.41,1.41,0,0,0-1.52-1.5,1.65,1.65,0,0,0-1.64,1.5Z" transform="translate(-88.32 -50.29)"/><path class="cls-6" d="M572.11,588.5h.67l-.67,2.34h-.81Zm1.81,0h.67l-.67,2.34h-.81Z" transform="translate(-88.32 -50.29)"/><path class="cls-6" d="M582.33,594.45a3.12,3.12,0,0,1-2.62,1.3,3.72,3.72,0,0,1,0-7.43,3.08,3.08,0,0,1,2.45,1.12l-.63.47a2.34,2.34,0,0,0-1.82-.93,3.06,3.06,0,0,0,0,6.11,2.27,2.27,0,0,0,2-1.06Z" transform="translate(-88.32 -50.29)"/><path class="cls-6" d="M586.68,595.57a6.27,6.27,0,0,1,0-.75h0a1.89,1.89,0,0,1-1.57.87,1.6,1.6,0,0,1-1.76-1.83v-3H584v2.59c0,1,.29,1.61,1.27,1.61.14,0,1.42-.09,1.42-1.8v-2.4h.66v3.65c0,.25,0,.69.05,1Z" transform="translate(-88.32 -50.29)"/><path class="cls-6" d="M591.28,591.49h-1.35v2.76c0,.7.27.84.68.84a1.47,1.47,0,0,0,.68-.18l0,.61a2.21,2.21,0,0,1-.89.17,1.09,1.09,0,0,1-1.16-1.25v-3h-1v-.6h1v-1.32h.66v1.32h1.35Z" transform="translate(-88.32 -50.29)"/><path class="cls-6" d="M595.77,595.57h-.66V588h.66Z" transform="translate(-88.32 -50.29)"/><path class="cls-6" d="M597.84,589.57a.48.48,0,0,1-.48-.47.48.48,0,0,1,1,0A.48.48,0,0,1,597.84,589.57Zm.33,6h-.66v-4.68h.66Z" transform="translate(-88.32 -50.29)"/><path class="cls-6" d="M600.39,590.89a6.27,6.27,0,0,1,0,.75h0a1.88,1.88,0,0,1,1.57-.86,1.6,1.6,0,0,1,1.76,1.82v3h-.66V593c0-1-.29-1.61-1.27-1.61-.14,0-1.42.09-1.42,1.8v2.4h-.66v-3.65c0-.25,0-.69,0-1Z" transform="translate(-88.32 -50.29)"/><path class="cls-6" d="M605.78,593.41a1.75,1.75,0,0,0,3.22.87l.51.42a2.44,2.44,0,0,1-2,1,2.46,2.46,0,0,1-.06-4.91,2.18,2.18,0,0,1,2.24,2.33v.3Zm3.18-.54a1.41,1.41,0,0,0-1.52-1.5,1.65,1.65,0,0,0-1.64,1.5Z" transform="translate(-88.32 -50.29)"/><path class="cls-6" d="M611.78,590.84h-.67l.67-2.34h.81Zm1.81,0h-.67l.67-2.34h.81Z" transform="translate(-88.32 -50.29)"/><path class="cls-6" d="M619.66,595.57H619V588h.66Z" transform="translate(-88.32 -50.29)"/><path class="cls-6" d="M624.25,592.7v-.12a1.06,1.06,0,0,0-1.2-1.21,2.08,2.08,0,0,0-1.43.55l-.4-.47a2.68,2.68,0,0,1,2-.67,1.56,1.56,0,0,1,1.71,1.65v2.09a7.63,7.63,0,0,0,.08,1.05h-.64a4.68,4.68,0,0,1-.06-.76h0a1.75,1.75,0,0,1-1.65.88,1.44,1.44,0,0,1-1.61-1.37c0-1.52,1.79-1.62,2.91-1.62Zm-.34.54c-.67,0-2.18,0-2.18,1,0,.62.57.86,1.1.86a1.37,1.37,0,0,0,1.42-1.51v-.34Z" transform="translate(-88.32 -50.29)"/><path class="cls-6" d="M628.18,594.76l1.43-3.87h.8l-2.34,5.9c-.28.72-.66,1.18-1.47,1.18a2.12,2.12,0,0,1-.61-.07l.07-.64a1,1,0,0,0,.5.11c.46,0,.7-.31.9-.84l.34-.9-1.92-4.74h.83Z" transform="translate(-88.32 -50.29)"/><path class="cls-6" d="M631.72,593.41a1.75,1.75,0,0,0,3.22.87l.51.42a2.44,2.44,0,0,1-2,1,2.46,2.46,0,0,1-.06-4.91,2.18,2.18,0,0,1,2.24,2.33v.3Zm3.18-.54a1.41,1.41,0,0,0-1.52-1.5,1.65,1.65,0,0,0-1.64,1.5Z" transform="translate(-88.32 -50.29)"/><path class="cls-6" d="M636.89,592.35c0-.42,0-.78,0-1.46h.65v.87h0a1.53,1.53,0,0,1,1.5-1,1.8,1.8,0,0,1,.49.05l-.13.65a1.11,1.11,0,0,0-.38-.05,1.46,1.46,0,0,0-1.45,1.5v2.64h-.66Z" transform="translate(-88.32 -50.29)"/><path class="cls-6" d="M640.81,595.63a.54.54,0,1,1,.54-.54A.54.54,0,0,1,640.81,595.63Z" transform="translate(-88.32 -50.29)"/><path class="cls-6" d="M492.62,573.73H493c.83,0,1.54-.36,1.54-1.3a1.15,1.15,0,0,0-1.31-1.2,1.49,1.49,0,0,0-1.34.78l-.63-.32a2.09,2.09,0,0,1,1.95-1.12,1.87,1.87,0,0,1,2.05,1.84,1.74,1.74,0,0,1-1.2,1.62l0,0a1.77,1.77,0,0,1,1.36,1.8,2.06,2.06,0,0,1-2.26,2,2.18,2.18,0,0,1-2.22-1.43l.76-.23a1.55,1.55,0,0,0,3-.4c0-1.07-.87-1.44-1.8-1.44h-.31Z" transform="translate(-88.32 -50.29)"/><rect class="cls-8" x="25.17" y="592.2" width="95.56" height="14.81"/><polygon class="cls-8" points="57.99 573.11 19.54 573.11 19.54 630.92 126.36 630.92 126.36 586.57 57.99 586.57 57.99 573.11"/><line class="cls-8" x1="40.21" y1="592.2" x2="40.21" y2="607.01"/><line class="cls-8" x1="55.25" y1="592.2" x2="55.25" y2="607.01"/><path class="cls-8" d="M146.32,636.86" transform="translate(-88.32 -50.29)"/><polyline class="cls-8" points="57.99 573.11 126.36 573.11 126.36 586.57"/><line class="cls-8" x1="114.68" y1="579.14" x2="120.86" y2="579.14"/><line class="cls-8" x1="114.68" y1="580.55" x2="120.86" y2="580.55"/><line class="cls-8" x1="114.68" y1="581.95" x2="120.86" y2="581.95"/><line class="cls-8" x1="114.68" y1="577.73" x2="120.86" y2="577.73"/><rect class="cls-9" x="25.17" y="607.01" width="95.56" height="14.81"/><line class="cls-10" x1="25.17" y1="607.01" x2="120.74" y2="607.01"/><path class="cls-6" d="M157.58,661.83h.62l2.34,5.51h-.76l-.56-1.35h-2.76l-.57,1.35h-.74Zm.3.84h0l-1.14,2.71H159Z" transform="translate(-88.32 -50.29)"/><path class="cls-6" d="M161.16,664.56c0-.33,0-.62,0-.86h.58c0,.19,0,.4,0,.6h0a1.33,1.33,0,0,1,1.22-.69.53.53,0,0,1,.24,0l0,.61a1.26,1.26,0,0,0-.33,0c-.74,0-1.07.52-1.07,1.36v1.77h-.6Z" transform="translate(-88.32 -50.29)"/><path class="cls-6" d="M165.88,664.21h-1.07V666c0,.47,0,.84.55.84a1.11,1.11,0,0,0,.53-.12l0,.55a1.76,1.76,0,0,1-.71.14c-.87,0-1-.47-1-1.23v-2h-.79v-.51h.79v-1h.61v1h1.07Z" transform="translate(-88.32 -50.29)"/><path class="cls-6" d="M170.54,667.34h-.6l-1-2.8h0l-.92,2.8h-.63l-1.18-3.64h.67l.83,2.8h0l.94-2.8h.64l1,2.8h0l.83-2.8h.65Z" transform="translate(-88.32 -50.29)"/><path class="cls-6" d="M174.12,663.61a1.92,1.92,0,1,1-1.94,1.91A1.85,1.85,0,0,1,174.12,663.61Zm0,3.26a1.35,1.35,0,1,0-1.29-1.35A1.27,1.27,0,0,0,174.12,666.87Z" transform="translate(-88.32 -50.29)"/><path class="cls-6" d="M177,664.56c0-.33,0-.62,0-.86h.57c0,.19,0,.4,0,.6h0a1.33,1.33,0,0,1,1.22-.69.57.57,0,0,1,.25,0l0,.61a1.2,1.2,0,0,0-.33,0c-.74,0-1.07.52-1.07,1.36v1.77H177Z" transform="translate(-88.32 -50.29)"/><path class="cls-6" d="M179.74,661.46h.61v3.84l1.66-1.6h.86l-1.76,1.66,1.94,2h-.89l-1.81-1.91v1.91h-.61Z" transform="translate(-88.32 -50.29)"/><line class="cls-10" x1="40.21" y1="607.01" x2="40.21" y2="621.82"/><line class="cls-10" x1="55.25" y1="607.01" x2="55.25" y2="621.82"/><polygon class="cls-6" points="62.68 614.41 59.75 616.98 59.75 611.85 62.68 614.41"/><path class="cls-6" d="M124,664.7s-1.2,2.07-3,2.07-3-2.07-3-2.07,1.2-2.07,3-2.07S124,664.7,124,664.7Zm-1.52,0a1.46,1.46,0,0,0-2.91,0,1.46,1.46,0,1,0,2.91,0Zm-1.45-.65a.65.65,0,1,0,.65.65A.66.66,0,0,0,121,664.05Z" transform="translate(-88.32 -50.29)"/><polygon class="cls-6" points="117.04 607.01 120.74 607.01 120.74 610.71 117.04 607.01"/><path class="cls-6" d="M117.53,628.12h.65V633h2.52v.61h-3.17Z" transform="translate(-88.32 -50.29)"/><path class="cls-6" d="M121.26,630.46a2,2,0,0,1,1.45-.56c1.07,0,1.52.51,1.52,1.54V633a4.13,4.13,0,0,0,0,.63h-.58a2.5,2.5,0,0,1,0-.54h0a1.39,1.39,0,0,1-1.2.64c-.74,0-1.36-.38-1.36-1.09,0-1.2,1.41-1.27,2.3-1.27h.23v-.11c0-.53-.33-.8-.9-.8a1.63,1.63,0,0,0-1.08.39Zm1.76,1.42c-.77,0-1.27.21-1.27.7s.34.63.8.63a1,1,0,0,0,1.07-1.1v-.23Z" transform="translate(-88.32 -50.29)"/><path class="cls-6" d="M126.68,634.46c-.24.62-.48,1-1.22,1a1.43,1.43,0,0,1-.54-.09l.08-.53a1.29,1.29,0,0,0,.42.06c.4,0,.55-.24.68-.6l.25-.68L124.84,630h.71l1.13,2.86h0l1.08-2.86h.67Z" transform="translate(-88.32 -50.29)"/><path class="cls-6" d="M132.34,633a1.88,1.88,0,0,1-1.62.76,1.92,1.92,0,0,1,0-3.83,1.69,1.69,0,0,1,1.73,1.9v.2h-2.94a1.21,1.21,0,0,0,1.19,1.16,1.35,1.35,0,0,0,1.16-.55Zm-.52-1.49a1,1,0,0,0-1.1-1,1.13,1.13,0,0,0-1.19,1Z" transform="translate(-88.32 -50.29)"/><path class="cls-6" d="M133.41,630.85c0-.33,0-.62,0-.86H134c0,.19,0,.4,0,.6h0a1.33,1.33,0,0,1,1.22-.69.57.57,0,0,1,.25,0l0,.61a1.2,1.2,0,0,0-.33,0c-.74,0-1.06.52-1.06,1.36v1.77h-.61Z" transform="translate(-88.32 -50.29)"/><path class="cls-6" d="M136.22,632.67a1.12,1.12,0,0,0,.94.49c.38,0,.8-.16.8-.56s-.39-.49-.78-.57c-.69-.16-1.28-.3-1.28-1.06s.68-1.07,1.36-1.07a1.33,1.33,0,0,1,1.24.66l-.51.33a.88.88,0,0,0-.77-.43c-.34,0-.72.16-.72.5s.44.44.92.53c.65.13,1.19.36,1.19,1.09s-.73,1.15-1.45,1.15a1.55,1.55,0,0,1-1.42-.68Z" transform="translate(-88.32 -50.29)"/><path class="cls-6" d="M159.49,647.24h-1.82v4.91H157v-4.91h-1.82v-.6h4.3Z" transform="translate(-88.32 -50.29)"/><path class="cls-6" d="M163.4,651.48a1.86,1.86,0,0,1-1.62.76,1.92,1.92,0,0,1,0-3.83,1.7,1.7,0,0,1,1.73,1.91v.19h-2.94a1.22,1.22,0,0,0,1.19,1.17,1.37,1.37,0,0,0,1.16-.55Zm-.52-1.48a1,1,0,0,0-1.1-1,1.13,1.13,0,0,0-1.19,1Z" transform="translate(-88.32 -50.29)"/><path class="cls-6" d="M164.47,649.37c0-.34,0-.63,0-.87H165c0,.2,0,.4,0,.6h0a1.33,1.33,0,0,1,1.22-.69,1.13,1.13,0,0,1,1.15.69,1.25,1.25,0,0,1,1.15-.69c1,0,1.39.58,1.39,1.53v2.21h-.61V650c0-.51-.18-1-.89-1a1,1,0,0,0-.94,1.07v2.11h-.61v-2.07c0-.8-.2-1.11-.7-1.11-.78,0-1.12.57-1.12,1.4v1.78h-.61Z" transform="translate(-88.32 -50.29)"/><path class="cls-6" d="M171.06,648.5h.61V649h0a1.7,1.7,0,0,1,1.31-.62,1.92,1.92,0,0,1,.09,3.83,1.59,1.59,0,0,1-1.4-.74h0v2.42h-.61Zm1.9,3.18a1.36,1.36,0,1,0-1.29-1.36A1.27,1.27,0,0,0,173,651.68Z" transform="translate(-88.32 -50.29)"/><path class="cls-6" d="M175.9,646.26h.6v5.89h-.6Z" transform="translate(-88.32 -50.29)"/><path class="cls-6" d="M177.66,649a2,2,0,0,1,1.45-.56c1.07,0,1.52.51,1.52,1.54v1.57a4.21,4.21,0,0,0,.06.63h-.59a2.59,2.59,0,0,1,0-.55h0a1.39,1.39,0,0,1-1.2.64c-.74,0-1.35-.38-1.35-1.08,0-1.21,1.4-1.28,2.29-1.28H180v-.11c0-.53-.34-.8-.91-.8a1.59,1.59,0,0,0-1.08.4Zm1.76,1.42c-.77,0-1.27.21-1.27.7s.34.64.8.64a1,1,0,0,0,1.08-1.1v-.24Z" transform="translate(-88.32 -50.29)"/><path class="cls-6" d="M183.73,649h-1.07v1.82c0,.46,0,.84.55.84a1.12,1.12,0,0,0,.53-.13l0,.56a1.94,1.94,0,0,1-.71.13c-.87,0-1-.47-1-1.22v-2h-.79v-.52h.79v-1h.61v1h1.07Z" transform="translate(-88.32 -50.29)"/><path class="cls-6" d="M187.73,651.48a1.86,1.86,0,0,1-1.62.76,1.92,1.92,0,0,1,0-3.83,1.7,1.7,0,0,1,1.72,1.91v.19h-2.94a1.22,1.22,0,0,0,1.19,1.17,1.37,1.37,0,0,0,1.16-.55Zm-.52-1.48a1,1,0,0,0-1.1-1,1.13,1.13,0,0,0-1.19,1Z" transform="translate(-88.32 -50.29)"/><path class="cls-6" d="M137.72,649.14h-.21v-.51a1.46,1.46,0,0,0-2.91,0v.51h-.21a.54.54,0,0,0-.54.53V652a.53.53,0,0,0,.54.52h3.33a.53.53,0,0,0,.54-.52v-2.28A.54.54,0,0,0,137.72,649.14Zm-2.42-.51a.78.78,0,0,1,1.51,0v.51H135.3Zm.38,2.71v-1.07h.75v1.07Z" transform="translate(-88.32 -50.29)"/><path class="cls-6" d="M124,649.89s-1.2,2.07-3,2.07-3-2.07-3-2.07,1.2-2.07,3-2.07S124,649.89,124,649.89Zm-1.52,0a1.46,1.46,0,0,0-2.91,0,1.46,1.46,0,1,0,2.91,0Zm-1.45-.65a.65.65,0,1,0,.65.65A.66.66,0,0,0,121,649.24Z" transform="translate(-88.32 -50.29)"/><polyline class="cls-10" points="120.74 607.01 120.74 621.82 25.17 621.82 25.17 607.01"/><circle class="cls-11" cx="254.86" cy="605.94" r="33.66"/><circle class="cls-12" cx="295.1" cy="596.05" r="33.66"/><polygon class="cls-6" points="318.76 603.93 318.76 615.98 321.93 612.28 327.07 612.28 318.76 603.93"/><rect class="cls-13" x="221.19" y="572.28" width="67.33" height="67.33"/><rect class="cls-4" x="219.67" y="570.76" width="3.05" height="3.04"/><path class="cls-6" d="M310.64,621.44v2.25h-2.25v-2.25h2.25m.8-.8h-3.85v3.85h3.85v-3.85Z" transform="translate(-88.32 -50.29)"/><rect class="cls-4" x="287" y="570.76" width="3.04" height="3.04"/><path class="cls-6" d="M378,621.44v2.25h-2.25v-2.25H378m.8-.8h-3.85v3.85h3.85v-3.85Z" transform="translate(-88.32 -50.29)"/><rect class="cls-4" x="287" y="638.09" width="3.04" height="3.04"/><path class="cls-6" d="M378,688.77V691h-2.25v-2.25H378m.8-.8h-3.85v3.85h3.85V688Z" transform="translate(-88.32 -50.29)"/><rect class="cls-4" x="219.67" y="638.09" width="3.05" height="3.04"/><path class="cls-6" d="M310.64,688.77V691h-2.25v-2.25h2.25m.8-.8h-3.85v3.85h3.85V688Z" transform="translate(-88.32 -50.29)"/><rect class="cls-4" x="219.67" y="604.42" width="3.05" height="3.04"/><path class="cls-6" d="M310.64,655.11v2.24h-2.25v-2.24h2.25m.8-.8h-3.85v3.84h3.85v-3.84Z" transform="translate(-88.32 -50.29)"/><rect class="cls-4" x="287" y="604.42" width="3.04" height="3.04"/><path class="cls-6" d="M378,655.11v2.24h-2.25v-2.24H378m.8-.8h-3.85v3.84h3.85v-3.84Z" transform="translate(-88.32 -50.29)"/><rect class="cls-4" x="253.33" y="638.09" width="3.04" height="3.04"/><path class="cls-6" d="M344.3,688.77V691h-2.24v-2.25h2.24m.8-.8h-3.84v3.85h3.84V688Z" transform="translate(-88.32 -50.29)"/><rect class="cls-4" x="253.33" y="570.76" width="3.04" height="3.04"/><path class="cls-6" d="M344.3,621.44v2.25h-2.24v-2.25h2.24m.8-.8h-3.84v3.85h3.84v-3.85Z" transform="translate(-88.32 -50.29)"/><path class="cls-11" d="M475.3,814.05c-1.6-4.49-6.41-6.74-10.8-6.74-4.17,0-7.91,2-7.91,6.31,0,8.13,24.6,6.63,24.6,24.39,0,12-9.31,20.42-22.79,20.42-10.9,0-19.67-5.66-23.1-12.19l9.84-8c2.78,4.6,8.77,7.81,15,7.81,4.38,0,7.48-2,7.48-6.2,0-9.63-24.49-6.85-24.49-25,0-10.7,8.45-18.83,22.14-18.83,8,0,17,3.21,21,9.63Z" transform="translate(-88.32 -50.29)"/><path class="cls-11" d="M515.09,857.47a31.41,31.41,0,0,1-7.59,1.07c-9.84,0-15.51-6.09-15.51-15.61a29,29,0,0,1,.64-5.89l6.1-28.34h-6.31L495,796.83h6.31L505,779.29h13.9l-3.74,17.54h11.65l-2.56,11.87H512.63l-6.31,29.95a6.7,6.7,0,0,0-.21,1.92,4.55,4.55,0,0,0,4.92,4.92,8.79,8.79,0,0,0,4.6-1.07Z" transform="translate(-88.32 -50.29)"/><rect class="cls-13" x="346.98" y="729" width="91.55" height="79.25"/><rect class="cls-4" x="345.46" y="727.48" width="3.04" height="3.04"/><path class="cls-6" d="M436.43,778.17v2.24h-2.25v-2.24h2.25m.8-.8h-3.85v3.84h3.85v-3.84Z" transform="translate(-88.32 -50.29)"/><rect class="cls-4" x="391.23" y="727.48" width="3.04" height="3.04"/><path class="cls-6" d="M482.2,778.17v2.24H480v-2.24h2.24m.8-.8h-3.84v3.84H483v-3.84Z" transform="translate(-88.32 -50.29)"/><rect class="cls-4" x="391.23" y="806.73" width="3.04" height="3.04"/><path class="cls-6" d="M482.2,857.42v2.24H480v-2.24h2.24m.8-.8h-3.84v3.84H483v-3.84Z" transform="translate(-88.32 -50.29)"/><rect class="cls-4" x="345.46" y="806.73" width="3.04" height="3.04"/><path class="cls-6" d="M436.43,857.42v2.24h-2.25v-2.24h2.25m.8-.8h-3.85v3.84h3.85v-3.84Z" transform="translate(-88.32 -50.29)"/><rect class="cls-4" x="437.01" y="806.63" width="3.04" height="3.04"/><path class="cls-6" d="M528,857.31v2.25h-2.25v-2.25H528m.8-.8h-3.85v3.85h3.85v-3.85Z" transform="translate(-88.32 -50.29)"/><rect class="cls-4" x="437.01" y="727.48" width="3.04" height="3.04"/><path class="cls-6" d="M528,778.17v2.24h-2.25v-2.24H528m.8-.8h-3.85v3.84h3.85v-3.84Z" transform="translate(-88.32 -50.29)"/><rect class="cls-4" x="437.01" y="767.11" width="3.04" height="3.04"/><path class="cls-6" d="M528,817.79V820h-2.25v-2.25H528m.8-.8h-3.85v3.85h3.85V817Z" transform="translate(-88.32 -50.29)"/><rect class="cls-4" x="345.46" y="767.11" width="3.04" height="3.04"/><path class="cls-6" d="M436.43,817.79V820h-2.25v-2.25h2.25m.8-.8h-3.85v3.85h3.85V817Z" transform="translate(-88.32 -50.29)"/><rect class="cls-6" x="375.97" y="744.53" width="2.32" height="2.32"/><rect class="cls-6" x="411.61" y="745.43" width="2.32" height="2.32"/><rect class="cls-6" x="425.88" y="745.43" width="2.32" height="2.32"/><rect class="cls-6" x="429.47" y="727.85" width="2.32" height="2.32"/><rect class="cls-6" x="415.5" y="727.85" width="2.32" height="2.32"/><rect class="cls-6" x="437.37" y="745.43" width="2.32" height="2.32"/><rect class="cls-6" x="434.71" y="757.19" width="2.32" height="2.32"/><rect class="cls-6" x="423.2" y="757.19" width="2.32" height="2.32"/><rect class="cls-6" x="416.66" y="787.83" width="2.32" height="2.32"/><rect class="cls-6" x="426.08" y="792.92" width="2.32" height="2.32"/><rect class="cls-6" x="425.66" y="805.83" width="2.32" height="2.32"/><rect class="cls-6" x="403.28" y="785.08" width="2.32" height="2.32"/><rect class="cls-6" x="405.44" y="745.43" width="2.32" height="2.32"/><rect class="cls-6" x="402.94" y="757.19" width="2.32" height="2.32"/><rect class="cls-6" x="409.29" y="757.19" width="2.32" height="2.32"/><rect class="cls-6" x="375.26" y="755.74" width="2.32" height="2.32"/><rect class="cls-6" x="396.73" y="754.16" width="2.32" height="2.32"/><rect class="cls-6" x="386.06" y="762.5" width="2.32" height="2.32"/><rect class="cls-6" x="367.14" y="762.5" width="2.32" height="2.32"/><rect class="cls-6" x="353.54" y="762.5" width="2.32" height="2.32"/><rect class="cls-6" x="378.16" y="787.83" width="2.32" height="2.32"/><rect class="cls-6" x="370.03" y="794.8" width="2.32" height="2.32"/><rect class="cls-6" x="355.79" y="786.95" width="2.32" height="2.32"/><rect class="cls-6" x="345.82" y="794.8" width="2.32" height="2.32"/><rect class="cls-6" x="368.59" y="806.99" width="2.32" height="2.32"/><rect class="cls-6" x="391.6" y="787.83" width="2.32" height="2.32"/><path class="cls-6" d="M324.76,904.65a6.27,6.27,0,0,1-4.93-1.67l1.89-1.89a4.18,4.18,0,0,0,3.09,1.09c1,0,2-.33,2-1.2,0-.58-.31-1-1.22-1.07l-1.82-.18c-2.09-.2-3.38-1.11-3.38-3.24,0-2.4,2.11-3.69,4.47-3.69a6.16,6.16,0,0,1,4.42,1.35l-1.78,1.8a4,4,0,0,0-2.69-.77c-1.15,0-1.64.53-1.64,1.11,0,.42.18.91,1.2,1l1.82.18c2.29.22,3.45,1.44,3.45,3.4C329.68,903.43,327.5,904.65,324.76,904.65Z" transform="translate(-88.32 -50.29)"/><path class="cls-6" d="M334.73,904.52a3.15,3.15,0,0,1-3.36-3.32v-5.74h-1.22v-2.2h1.22v-3.42h2.89v3.42h2.05v2.2h-2.05V901c0,.67.31,1.05,1,1.05h1.05v2.45Z" transform="translate(-88.32 -50.29)"/><path class="cls-6" d="M337.59,891v-2.36h3V891Zm0,13.57V892.93h2.9v11.59Z" transform="translate(-88.32 -50.29)"/><path class="cls-6" d="M347.06,904.65c-2.31,0-5.18-1.25-5.18-5.94s2.87-5.91,5.18-5.91a4.94,4.94,0,0,1,3.82,1.55l-1.95,2a2.35,2.35,0,0,0-1.87-.91,2,2,0,0,0-1.65.75,5.48,5.48,0,0,0,0,5.14,2,2,0,0,0,1.65.76,2.35,2.35,0,0,0,1.87-.91l1.95,1.93A4.93,4.93,0,0,1,347.06,904.65Z" transform="translate(-88.32 -50.29)"/><path class="cls-6" d="M358.86,904.52,356,899.69l-1.22,1.38v3.45H351.9V888.68h2.89v9l3.85-4.74h3.49L358,897.6l4.45,6.92Z" transform="translate(-88.32 -50.29)"/><path class="cls-6" d="M364.86,899.62a2.39,2.39,0,0,0,2.53,2.58,3.17,3.17,0,0,0,2.62-1.09l1.76,1.72a5.54,5.54,0,0,1-4.4,1.82c-2.74,0-5.36-1.25-5.36-5.94,0-3.78,2.05-5.91,5.05-5.91,3.22,0,5.05,2.35,5.05,5.53v1.29ZM369,896.4a2.16,2.16,0,0,0-3.87,0,3.26,3.26,0,0,0-.26,1.24h4.4A3.09,3.09,0,0,0,369,896.4Z" transform="translate(-88.32 -50.29)"/><path class="cls-6" d="M379.77,896.09a1.9,1.9,0,0,0-1.53-.69,1.93,1.93,0,0,0-1.87,2.13v7h-2.89V892.93h2.82V894a4,4,0,0,1,2.92-1.24,3.49,3.49,0,0,1,2.73,1.09Z" transform="translate(-88.32 -50.29)"/><path class="cls-6" d="M395,892.8a4.42,4.42,0,0,0-3.47,1.46,3.59,3.59,0,0,0-3.07-1.46,4,4,0,0,0-2.89,1.2v-1.07h-2.83v11.59h2.89v-7a1.88,1.88,0,0,1,1.94-2.11,1.86,1.86,0,0,1,1.91,2.11v7h2.89v-7.08a1.93,1.93,0,1,1,3.85.07v7h2.89v-7.41a4.34,4.34,0,0,0-1.27-3.29A4,4,0,0,0,395,892.8Z" transform="translate(-88.32 -50.29)"/><path class="cls-6" d="M407.51,899.94a1.93,1.93,0,1,1-3.84,0v-7h-2.9v7.41a4.33,4.33,0,0,0,1.18,3.29,3.8,3.8,0,0,0,2.74,1,4,4,0,0,0,2.89-1.2v1.07h2.82V892.93h-2.89Z" transform="translate(-88.32 -50.29)"/><path class="cls-6" d="M415.14,901V888.68h-2.9V901.2a3.15,3.15,0,0,0,3.38,3.32h1.65v-2.45h-1.11C415.42,902.07,415.14,901.71,415.14,901Z" transform="translate(-88.32 -50.29)"/><path class="cls-6" d="M427.88,898.33c0-3.18-1.82-5.53-5-5.53-3,0-5,2.13-5,5.91,0,4.69,2.62,5.94,5.36,5.94a5.54,5.54,0,0,0,4.4-1.82l-1.76-1.72a3.17,3.17,0,0,1-2.62,1.09,2.4,2.4,0,0,1-2.54-2.58h7.25Zm-7.25-.69a3.27,3.27,0,0,1,.27-1.24,2.16,2.16,0,0,1,3.87,0,3.09,3.09,0,0,1,.27,1.24Z" transform="translate(-88.32 -50.29)"/><path class="cls-14" d="M307.31,908.91a2.26,2.26,0,0,1-.81.09,1.41,1.41,0,0,1-.77-.12.56.56,0,0,1-.11-.32,1.61,1.61,0,0,1,0-.37c0-.14.06-.33,0-.41s-.29,0-.41-.12-.17-.25-.21-.44a1.77,1.77,0,0,1-.06-.17,3.2,3.2,0,0,1,.13-1c.08-.32.17-.63.22-.93a6.18,6.18,0,0,0,.08-1.43,2.77,2.77,0,0,1,0-.64c0-.19.12-.35.15-.54a1.23,1.23,0,0,0,0-.2c0-.06,0-.11,0-.15a3.59,3.59,0,0,0,0-.44,10.47,10.47,0,0,1,0-1.39c0-.13.07-.28,0-.33a7.26,7.26,0,0,0-1.26.13,11.92,11.92,0,0,1-3.58-.06l-.29,0a5.13,5.13,0,0,1-2-.93l-.28-.21a2.22,2.22,0,0,0-.27-.21,1,1,0,0,0-1.18.31c-.07.11-.12.25-.19.39l-.18.38c-.28.66-.6,1.28-.89,1.93a9,9,0,0,0-.47,1.23,6.25,6.25,0,0,0,.18,3c0,.08.06.16.09.25a1.59,1.59,0,0,0,.37.61c.08.08.22.12.32.2a2,2,0,0,1,.29.48l.15.24c.11.19.14.36-.07.47a1.51,1.51,0,0,1-.63.12c-.1,0-.07.17-.13.24a.85.85,0,0,1-.27.12,2.19,2.19,0,0,1-1,0,.46.46,0,0,1-.28-.22c-.05-.18.09-.41,0-.55s-.18-.05-.29-.1a.73.73,0,0,1-.37-.4,5.8,5.8,0,0,1-.09-1.69c0-.16,0-.33,0-.5a9.66,9.66,0,0,0-.13-1,1.93,1.93,0,0,0-.1-.43c-.05-.23-.08-.48-.15-.71a1.18,1.18,0,0,1,0-.72,1.17,1.17,0,0,0,.12-.2,1.06,1.06,0,0,0,.07-.38c0-.07-.19,0-.23-.08-.1-.7-.2-1.4-.26-2.13,0-.24,0-.5,0-.75,0-.5,0-1-.06-1.49,0-.23-.08-.45-.11-.68a7.22,7.22,0,0,1-.13-2.13,2.47,2.47,0,0,1,.49-1.09,5.6,5.6,0,0,1,.56-.63,5.82,5.82,0,0,1,.65-.54,3.46,3.46,0,0,1,.47-.31,3.72,3.72,0,0,1,1.36-.34,7.67,7.67,0,0,1,1.59.06l1.43.27c.47.09.92.22,1.36.33a1.22,1.22,0,0,1,.17.07c.14,0,.29,0,.45.08a5.47,5.47,0,0,0,1.44.17,6.77,6.77,0,0,0,1.48-.12l.19-.08a2.07,2.07,0,0,1,.22,0c.05,0,.09-.07.14-.09a5.47,5.47,0,0,0,.71-.41,2.24,2.24,0,0,1,.57-.33c.11,0,.22-.1.32-.13a3,3,0,0,0,.66-.26,7,7,0,0,0,.7-.62l.73-.61c.51-.41,1-.77,1.5-1.16a5.5,5.5,0,0,1,.79-.54,4.35,4.35,0,0,1,1.92-.75,5.12,5.12,0,0,1,1,0,1,1,0,0,0,.29,0c.09,0,.15-.15.21-.25a4.94,4.94,0,0,0,.31-.61c.06-.15,0-.31.2-.31s.13.43.14.59a5.31,5.31,0,0,0,0,.58.35.35,0,0,0,.28.24c.09,0,.15-.08.23-.13a2,2,0,0,0,.22-.12,3.74,3.74,0,0,0,.42-.39c.11-.12.28-.38.46-.36s0,.5-.06.65c-.17.36-.33.63-.51,1-.08.14-.25.32-.26.47s.09.17.14.28,0,.1,0,.15c.11.25.19.6.28.89s.13.51.22.75.21.46.31.7c0,.06,0,.13.05.2.2.51.4,1.1.64,1.6a1.55,1.55,0,0,1,.23.75,1.25,1.25,0,0,1-.32.72c-.07.13-.19.33-.3.37a1.31,1.31,0,0,1-.28,0c-.12,0-.21.1-.32.11a.67.67,0,0,1-.65-.42,1.09,1.09,0,0,1,0-.26,1.36,1.36,0,0,0-.5-.77,2,2,0,0,0-.49-.36c-.28-.15-.59-.24-.89-.4a.69.69,0,0,0-.34-.1c-.16,0-.32.29-.44.46-.78,1-1.47,2.08-2.23,3.08a16.4,16.4,0,0,0-1.45,2.11,5.32,5.32,0,0,0-.24.64c-.08.22-.12.46-.2.7-.29.83-.38,1.86-.65,2.73a2.65,2.65,0,0,0-.06.3c-.13.45-.25,1-.39,1.43a5.66,5.66,0,0,0-.16,1.31,3.26,3.26,0,0,0,.13,1.33c.08.15.38.2.49.35s.13.32.21.45a1,1,0,0,1,.2.46.3.3,0,0,1-.19.23c-.09,0-.23,0-.32.06S307.41,908.84,307.31,908.91Z" transform="translate(-88.32 -50.29)"/><rect class="cls-15" x="442.3" y="561.21" width="83.59" height="76.45"/><rect class="cls-4" x="440.78" y="559.69" width="3.04" height="3.04"/><path class="cls-6" d="M531.75,610.37v2.25h-2.24v-2.25h2.24m.8-.8h-3.84v3.85h3.84v-3.85Z" transform="translate(-88.32 -50.29)"/><rect class="cls-4" x="482.32" y="559.69" width="3.04" height="3.04"/><path class="cls-6" d="M573.29,610.37v2.25h-2.24v-2.25h2.24m.8-.8h-3.84v3.85h3.84v-3.85Z" transform="translate(-88.32 -50.29)"/><rect class="cls-4" x="482.32" y="636.14" width="3.04" height="3.05"/><path class="cls-6" d="M573.29,686.82v2.25H571v-2.25h2.25m.8-.8h-3.85v3.85h3.85V686Z" transform="translate(-88.32 -50.29)"/><rect class="cls-4" x="440.78" y="636.14" width="3.04" height="3.05"/><path class="cls-6" d="M531.75,686.82v2.25h-2.24v-2.25h2.24m.8-.8h-3.84v3.85h3.84V686Z" transform="translate(-88.32 -50.29)"/><rect class="cls-4" x="524.37" y="636.14" width="3.04" height="3.04"/><path class="cls-6" d="M615.34,686.82v2.25h-2.25v-2.25h2.25m.8-.8h-3.85v3.85h3.85V686Z" transform="translate(-88.32 -50.29)"/><rect class="cls-4" x="524.37" y="559.69" width="3.04" height="3.04"/><path class="cls-6" d="M615.34,610.37v2.25h-2.25v-2.25h2.25m.8-.8h-3.85v3.85h3.85v-3.85Z" transform="translate(-88.32 -50.29)"/><rect class="cls-4" x="440.72" y="598.18" width="3.04" height="3.05"/><path class="cls-6" d="M531.69,648.87v2.25h-2.24v-2.25h2.24m.8-.8h-3.84v3.85h3.84v-3.85Z" transform="translate(-88.32 -50.29)"/><rect class="cls-4" x="524.37" y="598.18" width="3.04" height="3.04"/><path class="cls-6" d="M615.34,648.87v2.24h-2.25v-2.24h2.25m.8-.8h-3.85v3.84h3.85v-3.84Z" transform="translate(-88.32 -50.29)"/><path class="cls-16" d="M581.62,686.56a7.2,7.2,0,0,1-2.61.29,4.3,4.3,0,0,1-2.51-.4,1.61,1.61,0,0,1-.36-1,5.74,5.74,0,0,1,.14-1.19,2.17,2.17,0,0,0,0-1.32c-.21-.3-1-.18-1.37-.4s-.54-.8-.67-1.43c0-.2-.16-.38-.18-.54a10.93,10.93,0,0,1,.42-3.27c.24-1.06.55-2,.72-3a19.69,19.69,0,0,0,.25-4.67,8.11,8.11,0,0,1,0-2.08c.11-.62.37-1.14.5-1.76,0-.19,0-.43,0-.65s.13-.35.14-.5c0-.41-.11-.92-.14-1.44a36.92,36.92,0,0,1,.11-4.52c0-.41.22-.89-.08-1.07a28.3,28.3,0,0,0-4.09.43,39,39,0,0,1-11.63-.18c-.33-.07-.66-.07-1-.14a16.74,16.74,0,0,1-6.5-3l-.89-.68a6.38,6.38,0,0,0-.9-.69,3.39,3.39,0,0,0-3.84,1c-.22.36-.39.83-.61,1.26s-.39.84-.57,1.25c-.93,2.13-2,4.15-2.91,6.29a33.28,33.28,0,0,0-1.55,4c-.85,2.93,0,6.86.62,9.62.06.25.19.5.28.78a5.09,5.09,0,0,0,1.19,2c.27.23.73.38,1,.65a5.66,5.66,0,0,1,1,1.54c.12.23.3.49.47.79.35.61.47,1.17-.22,1.54a5.31,5.31,0,0,1-2,.39c-.33.09-.22.54-.43.76a2.76,2.76,0,0,1-.86.39,6.85,6.85,0,0,1-3.34,0,1.47,1.47,0,0,1-.89-.72c-.19-.58.27-1.33-.15-1.79-.18-.2-.58-.16-.93-.32a2.4,2.4,0,0,1-1.22-1.3c-.57-1.44-.22-3.71-.29-5.49,0-.51-.09-1.07-.11-1.64,0-1.06-.28-2.09-.39-3.13a14.36,14.36,0,0,0-.32-1.4c-.17-.74-.29-1.55-.51-2.3a3.63,3.63,0,0,1,0-2.33c.08-.2.29-.38.39-.65a3.2,3.2,0,0,0,.22-1.26c-.12-.2-.63,0-.75-.25-.3-2.27-.65-4.55-.83-6.92-.06-.8-.06-1.62-.15-2.44-.15-1.62,0-3.28-.17-4.85-.08-.76-.27-1.48-.36-2.23-.28-2.08-.86-4.75-.43-6.92a8,8,0,0,1,1.58-3.55,18.62,18.62,0,0,1,1.83-2,19.29,19.29,0,0,1,2.11-1.76,9.81,9.81,0,0,1,1.55-1,12.53,12.53,0,0,1,4.41-1.11,24.83,24.83,0,0,1,5.17.22c1.57.28,3.13.56,4.67.86s3,.71,4.41,1.07c.19.05.35.17.54.22.46.13,1,.15,1.47.29a19.16,19.16,0,0,0,4.71.54,21.41,21.41,0,0,0,4.81-.39c.21-.06.38-.17.61-.26s.5-.07.71-.14.3-.21.47-.29a15,15,0,0,0,2.3-1.33,7.69,7.69,0,0,1,1.86-1.07c.35-.14.7-.32,1-.43a9.28,9.28,0,0,0,2.12-.83,20.88,20.88,0,0,0,2.3-2c.77-.68,1.55-1.33,2.37-2,1.65-1.31,3.32-2.51,4.88-3.77a18.83,18.83,0,0,1,2.58-1.75c1.81-1,3.65-2.26,6.24-2.45a15.6,15.6,0,0,1,3.13,0,3.51,3.51,0,0,0,.94.14c.28-.06.49-.49.68-.82a17.21,17.21,0,0,0,1-2c.21-.52.13-1,.65-1s.44,1.39.46,1.91a14.27,14.27,0,0,0,0,1.9,1.09,1.09,0,0,0,.9.75c.28,0,.48-.23.75-.39s.54-.26.72-.39a17.83,17.83,0,0,0,1.36-1.29c.36-.37.91-1.23,1.51-1.16,1,.13,0,1.63-.22,2.12-.53,1.18-1,2.06-1.64,3.16-.26.46-.83,1.07-.83,1.54s.28.56.43.91c.07.16.11.33.18.49.35.82.61,2,.9,2.91s.42,1.65.71,2.44.7,1.5,1,2.26c.08.2.1.44.18.65.66,1.68,1.29,3.59,2.08,5.2a5.57,5.57,0,0,1,.76,2.45,4.19,4.19,0,0,1-1,2.36c-.25.42-.62,1.05-1,1.19a4.52,4.52,0,0,1-.9,0c-.4.06-.68.32-1,.36a2.14,2.14,0,0,1-2.12-1.36,5.64,5.64,0,0,1-.1-.86,4.22,4.22,0,0,0-1.62-2.48,6.93,6.93,0,0,0-1.58-1.18c-.91-.48-1.94-.77-2.91-1.3a2,2,0,0,0-1.11-.32c-.52.11-1,.94-1.43,1.47-2.54,3.34-4.78,6.77-7.26,10a51.9,51.9,0,0,0-4.7,6.86,15.43,15.43,0,0,0-.79,2.09c-.26.7-.38,1.49-.65,2.25-.95,2.73-1.25,6-2.11,8.9-.09.31-.13.64-.22,1-.4,1.46-.79,3.12-1.25,4.67a18.24,18.24,0,0,0-.51,4.24c-.05,1.41-.12,3.44.4,4.34.27.48,1.24.65,1.61,1.15.26.34.43,1,.69,1.47s.68,1,.64,1.47a1,1,0,0,1-.61.75c-.3.15-.75.06-1,.22S582,686.34,581.62,686.56Z" transform="translate(-88.32 -50.29)"/><g class="cls-17"><path class="cls-18" d="M255.8,841.91a39.41,39.41,0,1,1-39.41-39.42A39.41,39.41,0,0,1,255.8,841.91Z" transform="translate(-88.32 -50.29)"/><path class="cls-19" d="M247.63,841.91a31.24,31.24,0,1,1-31.24-31.24A31.24,31.24,0,0,1,247.63,841.91Z" transform="translate(-88.32 -50.29)"/></g><path class="cls-6" d="M262.52,807.18h-.43v-3.71l-.76.68-.27-.33,1.08-.89h.38Z" transform="translate(-88.32 -50.29)"/><path class="cls-6" d="M264.4,810.36l-.58-.19,3-7.25.57.2Z" transform="translate(-88.32 -50.29)"/><path class="cls-6" d="M268.59,807.92A1,1,0,0,1,268,807a1.19,1.19,0,0,1,2.37,0,1,1,0,0,1-.63.95h0a1.11,1.11,0,0,1,.79,1.12,1.35,1.35,0,0,1-2.69,0,1.1,1.1,0,0,1,.8-1.12Zm.55.2a.87.87,0,1,0,.91.87A.85.85,0,0,0,269.14,808.12Zm0-1.86a.75.75,0,1,0,.75.75A.73.73,0,0,0,269.14,806.26Z" transform="translate(-88.32 -50.29)"/><path class="cls-6" d="M272.43,805.45h-.67l.67-2.35h.8Zm1.8,0h-.67l.67-2.35H275Z" transform="translate(-88.32 -50.29)"/><path class="cls-6" d="M248.39,824.83c8,1.61,16.23-1.7,18.51-10.1.07-.27-.76-.81-.84-.48-2.21,8.13-10.25,11.49-18.06,9.92-.53-.11.13.6.39.66Z" transform="translate(-88.32 -50.29)"/><path class="cls-6" d="M247.79,824.61l4.3,4.11c.28.27,1.23.18.8-.23l-4.29-4.11c-.29-.27-1.24-.18-.81.23Z" transform="translate(-88.32 -50.29)"/><path class="cls-6" d="M252.16,820.57l-4.29,3.65c-.5.43.24.9.65.55l4.3-3.66c.5-.42-.24-.9-.66-.54Z" transform="translate(-88.32 -50.29)"/></g></svg>